<svg width="43" height="43" viewBox="0 0 43 43" fill="none" xmlns="http://www.w3.org/2000/svg">
<g clipPath="url(#clip0_4153_1196)">
<path d="M32.4181 6.26565V3.07634L10.5823 3.07617V6.26548C10.5823 11.3028 13.0077 16.0748 17.1819 19.1385C17.9353 19.6916 18.3854 20.566 18.3854 21.5006C18.3854 22.4333 17.9381 23.3078 17.186 23.8594C12.9223 26.9872 10.582 31.8005 10.582 36.7346V39.924L32.4178 39.9241V36.7348C32.4178 31.8083 30.084 26.9924 25.8136 23.8594C25.0617 23.3078 24.6147 22.4335 24.6147 21.5009V21.5008C24.6147 20.566 25.0651 19.6916 25.8186 19.1384C29.9834 16.0813 32.4181 11.314 32.4181 6.26565Z" fill="#D8ECFE"/>
<path d="M25.8184 19.1383C29.9832 16.0813 32.4177 11.314 32.4178 6.26556V3.07626L10.582 3.07617L28.8469 3.07626V6.26556C28.8469 11.314 26.4122 16.0813 22.2475 19.1383C21.4939 19.6914 21.0435 20.5658 21.0435 21.5007V21.5007C21.0435 22.4333 21.4906 23.3077 22.2424 23.8593C26.5129 26.9922 28.8467 31.8082 28.8466 36.7347V39.924H32.4176V36.7347C32.4176 31.8082 30.0839 26.9922 25.8134 23.8593C25.0615 23.3077 24.6145 22.4333 24.6146 21.5007V21.5007C24.6145 20.5658 25.0648 19.6914 25.8184 19.1383Z" fill="#C4E2FF"/>
<path d="M13.1016 37.3605V36.9363C13.1016 34.8272 14.1924 32.8311 16.1365 31.2311C17.6507 29.9849 19.5522 29.3286 21.4998 29.3286C23.4474 29.3286 25.349 29.985 26.8632 31.2312C28.8075 32.8313 29.8983 34.8273 29.8983 36.9363V37.3605L13.1016 37.3605Z" fill="#2EA7E0"/>
<path d="M9.99414 3.07626H33.0058C33.8407 3.07626 34.5175 2.38767 34.5175 1.53825C34.5175 0.688832 33.8407 0.000244141 33.0058 0.000244141H9.99414C9.15917 0.000244141 8.48234 0.688916 8.48242 1.53842C8.48251 2.38775 9.15925 3.07626 9.99414 3.07626Z" fill="#596C76"/>
<path d="M9.99414 43.0001H33.0058C33.8407 43.0001 34.5175 42.3115 34.5175 41.4621C34.5175 40.6127 33.8407 39.9241 33.0058 39.9241H9.99414C9.15917 39.9241 8.48234 40.6127 8.48242 41.4622C8.48251 42.3116 9.15925 43.0001 9.99414 43.0001Z" fill="#596C76"/>
<path d="M21.4994 27.7293C21.1411 27.7293 20.8506 27.4388 20.8506 27.0805V26.2153C20.8506 25.8568 21.1411 25.5664 21.4994 25.5664C21.8578 25.5664 22.1483 25.8569 22.1483 26.2153V27.0805C22.1483 27.4388 21.8578 27.7293 21.4994 27.7293Z" fill="#2EA7E0"/>
<path d="M33.0054 0H28.5908C29.4257 0 30.1025 0.688588 30.1025 1.53801C30.1025 2.38742 29.4257 3.07601 28.5908 3.07601H33.0054C33.8403 3.07601 34.5171 2.38742 34.5171 1.53801C34.5171 0.688588 33.8403 0 33.0054 0Z" fill="#465A61"/>
<path d="M33.0054 39.9238H28.5908C29.4257 39.9238 30.1025 40.6124 30.1025 41.4618C30.1025 42.3113 29.4257 42.9998 28.5908 42.9998H33.0054C33.8403 42.9998 34.5171 42.3113 34.5171 41.4618C34.5171 40.6124 33.8403 39.9238 33.0054 39.9238Z" fill="#465A61"/>
<path d="M28.3164 32.6958C28.6668 34.0113 28.8469 35.3686 28.8469 36.7347V37.3606H29.8984V36.9363C29.8983 35.4308 29.3418 33.9832 28.3164 32.6958Z" fill="#80D6FF"/>
</g>
<defs>
<clipPath id="clip0_4153_1196">
<rect width="43" height="43" fill="white"/>
</clipPath>
</defs>
</svg>
