<svg width="36" height="26" viewBox="0 0 36 26" fill="none" xmlns="http://www.w3.org/2000/svg">
<g clipPath="url(#clip0_3596_1803)">
<path d="M35.3967 22.6278C35.3967 23.777 34.4652 24.7086 33.316 24.7086H2.27795C1.12881 24.7087 0.197266 23.777 0.197266 22.6278V2.51435C0.197266 1.36521 1.12881 0.433594 2.27795 0.433594H33.316C34.4652 0.433594 35.3967 1.36521 35.3967 2.51435V22.6278Z" fill="#306FC5"/>
<path opacity="0.15" d="M1.67654 22.6278V2.51435C1.67654 1.36521 2.60822 0.433594 3.75736 0.433594H2.27788C1.12881 0.433594 0.197266 1.36514 0.197266 2.51435V22.6279C0.197266 23.7771 1.12881 24.7087 2.27795 24.7087H3.75743C2.60829 24.7087 1.67654 23.777 1.67654 22.6278Z" fill="#202121"/>
</g>
<path d="M5.32617 10.1452H6.37789L5.85217 8.80664L5.32617 10.1452Z" fill="white"/>
<path d="M10.9199 14.6396V15.2612H12.6888V15.9306H10.9199V16.6479H12.8799L13.7881 15.6437L12.9277 14.6396H10.9199Z" fill="white"/>
<path d="M24.7348 8.80664L24.1611 10.1452H25.2608L24.7348 8.80664Z" fill="white"/>
<path d="M16.034 17.0285V14.3037L14.791 15.6423L16.034 17.0285Z" fill="white"/>
<path d="M18.3756 15.0701C18.3277 14.7833 18.1363 14.6396 17.8494 14.6396H16.8457V15.5001H17.8975C18.1842 15.5002 18.3756 15.3568 18.3756 15.0701Z" fill="white"/>
<path d="M21.7232 15.4046C21.8189 15.3567 21.8669 15.2132 21.8669 15.07C21.9147 14.879 21.8189 14.7832 21.7232 14.7354C21.6279 14.6875 21.4843 14.6875 21.3411 14.6875H20.3848V15.4525H21.341C21.4842 15.4525 21.6278 15.4525 21.7232 15.4046Z" fill="white"/>
<path d="M28.6064 7.56445V8.13809L28.3198 7.56445H26.0733V8.13809L25.7863 7.56445H22.7268C22.201 7.56445 21.7706 7.66015 21.3884 7.85134V7.56445H19.2373V7.6123V7.85134C18.9983 7.66022 18.7115 7.56445 18.329 7.56445H10.6326L10.1065 8.75958L9.5808 7.56445H7.85995H7.14283V8.13809L6.90379 7.56445H6.85594H4.80041L3.84419 9.81117L2.74482 12.2491L2.72461 12.2971H2.74482H5.18286H5.21339L5.23071 12.2491L5.51767 11.5322H6.13909L6.42591 12.2971H9.19828V12.2491V11.7234L9.43746 12.297H10.8236L11.0625 11.7234V12.2491V12.2971H12.162H17.6596H17.7074V11.0541H17.8032C17.8987 11.0541 17.8987 11.0541 17.8987 11.1976V12.2492H21.3406V11.9624C21.6275 12.106 22.0574 12.2492 22.6311 12.2492H24.0654L24.3523 11.4845H25.0213L25.3081 12.2492H28.0806V11.7713V11.5323L28.5111 12.2492H28.6064H28.6544H30.7578V7.56445H28.6066H28.6064ZM12.4012 11.5801H11.9231H11.6363V11.2935V8.95084L11.5885 9.0605V9.05919L10.4764 11.5801H10.4412H10.1855H9.77185L8.62464 8.95084V11.5801H6.99942L6.66482 10.8631H5.03932L4.70465 11.5801H3.86433L5.27849 8.23379H6.47349L7.81196 11.4366V8.23379H8.09871H9.07845L9.101 8.28171H9.10265L9.70579 9.5944L10.1389 10.5779L10.1542 10.5284L11.1103 8.23386H12.4012V11.5801H12.4012ZM15.6998 8.95084H13.8354V9.57227H15.6519V10.2415H13.8354V10.9109H15.6998V11.6278H13.0228V8.23386H15.6998V8.95084ZM19.1094 10.1835C19.1106 10.1846 19.1122 10.1854 19.1137 10.1864C19.1318 10.2055 19.1473 10.2247 19.1605 10.243C19.2521 10.3631 19.3261 10.5416 19.3298 10.8034C19.3301 10.808 19.3303 10.8124 19.3306 10.817C19.3306 10.8196 19.331 10.8218 19.331 10.8245C19.331 10.826 19.3309 10.8272 19.3309 10.8287C19.332 10.855 19.3327 10.8819 19.3327 10.9109V11.5802H18.6158V11.1976C18.6158 11.0064 18.6158 10.7195 18.4722 10.5284C18.427 10.4832 18.3813 10.4534 18.3315 10.4322C18.2599 10.3858 18.1241 10.3851 17.8987 10.3851H17.038V11.5802H16.2255V8.23386H18.0422C18.4722 8.23386 18.7591 8.23386 18.9982 8.37727C19.2325 8.51793 19.3739 8.7512 19.3793 9.12058C19.3682 9.62933 19.0417 9.90845 18.8069 10.0026C18.8069 10.0026 18.9664 10.0347 19.1094 10.1835ZM20.7192 11.5801H19.9064V8.23379H20.7192V11.5801ZM30.041 11.5801H28.9891L27.4594 9.0464V11.1498L27.4544 11.1448V11.5822H26.6468V11.5802H25.8341L25.5473 10.8632H23.874L23.5872 11.6279H22.6789C22.2967 11.6279 21.8184 11.5324 21.5317 11.2455C21.2449 10.9587 21.1016 10.5763 21.1016 9.95492C21.1016 9.47691 21.1971 8.99856 21.5317 8.61624C21.7705 8.32922 22.201 8.23386 22.7267 8.23386H23.4917V8.95084H22.7267C22.4399 8.95084 22.2967 8.99849 22.1051 9.14217C21.962 9.28551 21.8663 9.57227 21.8663 9.90687C21.8663 10.2894 21.9141 10.5284 22.1051 10.7195C22.2489 10.8632 22.4399 10.911 22.6789 10.911H23.0135L24.1129 8.28185H24.5912H25.3081L26.6468 11.4847V11.3213V10.2416V10.1461V8.28192H27.8417L29.2278 10.6242V8.28192H30.0408V11.5803H30.041V11.5801Z" fill="white"/>
<path d="M18.4289 9.62689C18.4428 9.61197 18.4555 9.59506 18.4662 9.57567C18.5095 9.50713 18.5592 9.38366 18.5324 9.21515C18.5313 9.19969 18.5285 9.18539 18.5252 9.17157C18.5243 9.16772 18.5245 9.16435 18.5234 9.1605L18.5229 9.16057C18.4992 9.07869 18.4384 9.02836 18.3779 8.99784C18.282 8.9502 18.1386 8.9502 17.9953 8.9502H17.0391V9.71516H17.9953C18.1386 9.71516 18.2821 9.71517 18.3779 9.66725C18.3922 9.65996 18.405 9.65006 18.4173 9.63885L18.4175 9.63947C18.4175 9.63947 18.4224 9.63432 18.4289 9.62689Z" fill="white"/>
<path d="M32.8632 16.3614C32.8632 16.0268 32.7677 15.692 32.6243 15.453V13.302H32.6221V13.1583C32.6221 13.1583 30.6184 13.1583 30.3202 13.1583C30.0221 13.1583 29.6604 13.4451 29.6604 13.4451V13.1583H27.4615C27.1267 13.1583 26.6967 13.254 26.5053 13.4451V13.1583H22.5855V13.302V13.445C22.2989 13.2062 21.7726 13.1583 21.5338 13.1583H18.9523V13.3019V13.445C18.7133 13.2061 18.1394 13.1582 17.8525 13.1582H14.9847L14.3153 13.8753L13.6938 13.1582H13.4936H13.168H9.3916V13.3018V13.6795V17.9866H13.5983L14.2895 17.2952L14.8887 17.9866H14.9367H17.3606H17.4705H17.5183H17.5659V17.5086V16.8872H17.8051C18.1394 16.8872 18.5699 16.8872 18.9045 16.7436V17.9386V18.0344H21.0557V17.9386V16.7914H21.151C21.2946 16.7914 21.2947 16.7914 21.2947 16.9349V17.9386V18.0344H27.7958C28.2263 18.0344 28.6563 17.9386 28.8953 17.7474V17.9386V18.0344H30.951C31.3809 18.0344 31.8115 17.9866 32.0983 17.7953C32.5385 17.5313 32.8159 17.0638 32.8571 16.5063C32.859 16.4898 32.8614 16.4733 32.863 16.4568L32.8601 16.4541C32.8619 16.4232 32.8632 16.3926 32.8632 16.3614ZM17.8052 16.0746H16.8489V16.2177V16.5046V16.7915V17.3174H15.2776L14.3631 16.2656L14.3599 16.2691L14.3153 16.2177L13.2636 17.3174H10.2042V13.9712H13.3115L14.1604 14.901L14.3388 15.0957L14.363 15.0706L15.367 13.9712H17.9006C18.3923 13.9712 18.9429 14.0926 19.1515 14.5929C19.1766 14.6919 19.1912 14.8021 19.1912 14.9272C19.1912 15.8832 18.5219 16.0746 17.8052 16.0746ZM22.5855 16.0267C22.681 16.1697 22.7288 16.3613 22.7288 16.6482V17.3173H21.9163V16.8872C21.9163 16.6957 21.9163 16.3613 21.7727 16.2177C21.6773 16.0746 21.4858 16.0746 21.1992 16.0746H20.3388V17.3174H19.5262V13.9233H21.3426C21.7248 13.9233 22.0594 13.9233 22.2989 14.0666C22.5377 14.2101 22.7288 14.4492 22.7288 14.8316C22.7288 15.3573 22.3944 15.6442 22.1552 15.7399C22.3944 15.8351 22.5377 15.9311 22.5855 16.0267ZM25.8841 14.6401H24.0194V15.2616H25.8361V15.931H24.0194V16.6003H25.8841V17.3173H23.207V13.9232H25.8841V14.6401ZM27.8917 17.3174H26.3619V16.6004H27.8917C28.0348 16.6004 28.1306 16.6004 28.2265 16.5047C28.2743 16.4568 28.3218 16.3614 28.3218 16.2657C28.3218 16.1698 28.2743 16.0747 28.2265 16.0268C28.1785 15.979 28.0827 15.9311 27.9394 15.9311C27.1745 15.8833 26.2662 15.9311 26.2662 14.8795C26.2662 14.4015 26.553 13.8755 27.4136 13.8755H28.991V14.6881H27.5092C27.3659 14.6881 27.2701 14.6881 27.1744 14.7359C27.079 14.7838 27.079 14.8795 27.079 14.975C27.079 15.1185 27.1744 15.1664 27.27 15.2138C27.3659 15.2617 27.4614 15.2617 27.5568 15.2617H27.9871C28.4174 15.2617 28.7042 15.3573 28.8954 15.5486C29.0389 15.6921 29.1345 15.9311 29.1345 16.2657C29.1345 16.9825 28.7043 17.3174 27.8917 17.3174ZM32.0028 16.9825C31.8118 17.174 31.477 17.3174 30.9988 17.3174H29.4694V16.6004H30.9987C31.1422 16.6004 31.238 16.6004 31.3335 16.5047C31.3811 16.4568 31.4291 16.3614 31.4291 16.2657C31.4291 16.1698 31.3811 16.0747 31.3335 16.0268C31.2857 15.979 31.1902 15.9311 31.0467 15.9311C30.2821 15.8833 29.3735 15.9311 29.3735 14.8796C29.3735 14.4252 29.6335 14.0148 30.2746 13.8929C30.3512 13.8823 30.4322 13.8755 30.5209 13.8755H32.0985V14.6881H31.0467H30.6644H30.6165C30.473 14.6881 30.3775 14.6881 30.2821 14.7359C30.2339 14.7838 30.1861 14.8795 30.1861 14.975C30.1861 15.1185 30.2339 15.1664 30.3776 15.2138C30.473 15.2617 30.5687 15.2617 30.6644 15.2617H30.7119H31.0945C31.3034 15.2617 31.4614 15.2875 31.606 15.3383C31.7384 15.3862 32.1767 15.5823 32.2747 16.0941C32.2833 16.1477 32.2895 16.2037 32.2895 16.2657C32.2895 16.5525 32.1939 16.7915 32.0028 16.9825Z" fill="white"/>
<defs>
<clipPath id="clip0_3596_1803">
<rect width="35.1994" height="25.1425" fill="white" transform="translate(0.197266)"/>
</clipPath>
</defs>
</svg>
