<svg width="14" height="14" viewBox="0 0 14 14" fill="none" xmlns="http://www.w3.org/2000/svg">
<path fill-rule="evenodd" clip-rule="evenodd" d="M7.0001 0.900024C9.24269 0.900024 10.9009 2.16633 11.9001 3.2325V2.00002C11.9001 1.84089 11.9633 1.68828 12.0758 1.57576C12.1884 1.46324 12.341 1.40002 12.5001 1.40002C12.6592 1.40002 12.8118 1.46324 12.9244 1.57576C13.0369 1.68828 13.1001 1.84089 13.1001 2.00002V5.00002C13.1001 5.15915 13.0369 5.31177 12.9244 5.42429C12.8118 5.53681 12.6592 5.60002 12.5001 5.60002H9.5001C9.34097 5.60002 9.18836 5.53681 9.07583 5.42429C8.96331 5.31177 8.9001 5.15915 8.9001 5.00002C8.9001 4.84089 8.96331 4.68828 9.07583 4.57576C9.18836 4.46324 9.34097 4.40002 9.5001 4.40002H11.3232C10.518 3.44695 9.02188 2.10002 7.0001 2.10002C5.89783 2.10002 5.00635 2.42849 4.38798 2.75937C4.07884 2.92478 3.8384 3.09058 3.67463 3.21566C3.59277 3.27818 3.53014 3.33048 3.48775 3.36738C3.46655 3.38583 3.45043 3.40043 3.4395 3.41051C3.42968 3.41958 3.42414 3.42494 3.42318 3.42586C3.31041 3.53823 3.15762 3.60121 2.99841 3.60093C2.83921 3.60065 2.68664 3.53713 2.57426 3.42436C2.46189 3.31159 2.39891 3.15879 2.39919 2.99959C2.39948 2.84039 2.46319 2.68761 2.57597 2.57524C2.65003 2.50186 4.28426 0.900024 7.0001 0.900024ZM4.5001 8.40002C4.65923 8.40002 4.81184 8.46324 4.92436 8.57576C5.03688 8.68828 5.1001 8.8409 5.1001 9.00002C5.1001 9.15915 5.03688 9.31177 4.92436 9.42429C4.81184 9.53681 4.65923 9.60003 4.5001 9.60003H2.67703C3.48216 10.5531 4.97831 11.9 7.0001 11.9C8.10236 11.9 8.99385 11.5716 9.61222 11.2407C9.92136 11.0753 10.1618 10.9095 10.3256 10.7844C10.4074 10.7219 10.47 10.6696 10.5124 10.6327C10.5336 10.6142 10.5498 10.5996 10.5607 10.5895C10.5719 10.5792 10.5773 10.5739 10.577 10.5742C10.6898 10.4618 10.8426 10.3988 11.0018 10.3991C11.161 10.3994 11.3136 10.4629 11.4259 10.5757C11.5383 10.6885 11.6013 10.8413 11.601 11.0005C11.6007 11.1597 11.537 11.3124 11.4242 11.4248C11.3502 11.4982 9.71594 13.1 7.0001 13.1C4.7575 13.1 3.0993 11.8337 2.1001 10.7675V12C2.1001 12.1592 2.03688 12.3118 1.92436 12.4243C1.81184 12.5368 1.65923 12.6 1.5001 12.6C1.34097 12.6 1.18835 12.5368 1.07583 12.4243C0.963311 12.3118 0.900097 12.1592 0.900097 12V9.00002C0.900097 8.8409 0.963311 8.68828 1.07583 8.57576C1.18835 8.46324 1.34097 8.40002 1.5001 8.40002H4.5001Z" fill="#0B318F"/>
</svg>
