<svg width="16" height="16" viewBox="0 0 16 16" fill="none" xmlns="http://www.w3.org/2000/svg">
<path d="M3 7.99962C2.99988 9.31424 3.52539 10.576 4.4628 11.5119C5.4002 12.4477 6.67408 12.9823 8.0087 13H8.07692C9.37353 13.0032 10.6216 12.5145 11.562 11.6353C11.6024 11.5977 11.6349 11.5526 11.6576 11.5026C11.6803 11.4526 11.6927 11.3987 11.6943 11.344C11.6958 11.2893 11.6864 11.2348 11.6666 11.1837C11.6467 11.1325 11.6169 11.0857 11.5787 11.0459C11.5405 11.0062 11.4947 10.9742 11.444 10.9518C11.3932 10.9295 11.3385 10.9172 11.2829 10.9157C11.2274 10.9141 11.172 10.9234 11.1201 10.943C11.0682 10.9625 11.0207 10.9919 10.9803 11.0295C10.3754 11.5914 9.61582 11.9652 8.79645 12.1044C7.97709 12.2435 7.13426 12.1418 6.37325 11.8119C5.61224 11.482 4.96679 10.9386 4.51754 10.2495C4.06829 9.56042 3.83515 8.75623 3.84725 7.9374C3.85934 7.11857 4.11614 6.3214 4.58555 5.64547C5.05497 4.96955 5.7162 4.44484 6.48663 4.13689C7.25706 3.82895 8.10254 3.75142 8.91745 3.91399C9.73236 4.07656 10.4806 4.47202 11.0686 5.05097C11.0729 5.05557 11.0775 5.05992 11.0824 5.06399L12.488 6.33284H11.0385C10.9263 6.33284 10.8186 6.37674 10.7393 6.45488C10.66 6.53303 10.6154 6.63902 10.6154 6.74953C10.6154 6.86005 10.66 6.96604 10.7393 7.04418C10.8186 7.12233 10.9263 7.16623 11.0385 7.16623H13.5769C13.6891 7.16623 13.7967 7.12233 13.8761 7.04418C13.9554 6.96604 14 6.86005 14 6.74953V4.24935C14 4.13884 13.9554 4.03285 13.8761 3.9547C13.7967 3.87656 13.6891 3.83265 13.5769 3.83265C13.4647 3.83265 13.3571 3.87656 13.2778 3.9547C13.1984 4.03285 13.1538 4.13884 13.1538 4.24935V5.80155L11.6599 4.4577C10.9491 3.76038 10.0445 3.28609 9.0603 3.0947C8.07608 2.90331 7.05636 3.00341 6.12985 3.38235C5.20335 3.7613 4.4116 4.4021 3.85456 5.22387C3.29751 6.04564 3.00015 7.01154 3 7.99962Z" fill="#1C1D22"/>
</svg>
