<svg width="12" height="7" viewBox="0 0 12 7" fill="none" xmlns="http://www.w3.org/2000/svg">
<path d="M11.9584 0.360185C11.9171 0.253594 11.8472 0.162481 11.7575 0.0983688C11.6678 0.0342565 11.5624 2.38881e-05 11.4545 1.80705e-07H0.545862C0.437924 -9.06601e-05 0.332386 0.0340698 0.242611 0.0981569C0.152837 0.162244 0.0828608 0.253376 0.0415429 0.360015C0.000224988 0.466655 -0.0105771 0.584008 0.0105041 0.697217C0.0315853 0.810425 0.0836019 0.9144 0.159969 0.995977L5.6143 6.82893C5.66495 6.88316 5.72511 6.92618 5.79132 6.95554C5.85754 6.98489 5.92851 7 6.00019 7C6.07187 7 6.14284 6.98489 6.20906 6.95554C6.27527 6.92618 6.33543 6.88316 6.38609 6.82893L11.8404 0.995977C11.9167 0.914357 11.9686 0.810386 11.9896 0.697215C12.0106 0.584043 11.9997 0.466755 11.9584 0.360185Z" fill="#424F65"/>
</svg>
