<svg width="39" height="26" viewBox="0 0 39 26" fill="none" xmlns="http://www.w3.org/2000/svg">
<g id="Page-1">
<g id="DISCOVER">
<path id="Rectangle-1" fill-rule="evenodd" clip-rule="evenodd" d="M35.5121 2.53571e-07C33.6264 4.44653e-07 13.6619 -4.02648e-07 2.51264 2.53571e-07C1.5698 3.08884e-07 0.626953 1.0057 0.626953 2.0114V22.1254C0.626953 24.1368 1.5698 25.1425 3.45548 25.1425C13.9736 25.1425 33.6264 25.1425 35.5121 25.1425C37.3978 25.1425 38.3406 24.1368 38.3406 22.1254V3.0171C38.3406 1.0057 37.3978 2.53571e-07 35.5121 2.53571e-07Z" fill="#F4F4F4"/>
<path id="Rectangle-1-copy" fill-rule="evenodd" clip-rule="evenodd" d="M12.3037 25.1427C22.436 25.1427 34.0812 25.1427 35.5111 25.1427C37.3968 25.1427 38.3396 24.137 38.3396 22.1256V10.165C38.3396 10.165 32.7201 20.7185 12.3037 25.1427Z" fill="#D97B16"/>
<path id="NETWORK" fill-rule="evenodd" clip-rule="evenodd" d="M12.8936 12.2997H13.2325L14.2815 13.9695H14.2868V12.2997H14.5451V14.331H14.2169L13.1572 12.6612H13.1518V14.331H12.8936V12.2997ZM15.0346 12.2997H16.2638V12.5579H15.2928V13.1633H16.1966V13.4215H15.2928V14.0728H16.3122V14.331H15.0346V12.2997ZM17.0761 12.5579H16.4629V12.2997H17.9476V12.5579H17.3343V14.331H17.0761V12.5579ZM17.9799 12.2997H18.2489L18.6685 13.9236H18.6738L19.123 12.2997H19.4189L19.8681 13.9236H19.8735L20.2931 12.2997H20.5621L20.008 14.331H19.7363L19.2737 12.6727H19.2683L18.8083 14.331H18.5367L17.9799 12.2997ZM21.6837 14.3826C21.5384 14.3826 21.4048 14.3554 21.2829 14.3009C21.161 14.2464 21.0565 14.1713 20.9696 14.0756C20.8826 13.98 20.8144 13.8672 20.7651 13.7371C20.7158 13.607 20.6912 13.4664 20.6912 13.3153C20.6912 13.1642 20.7158 13.0237 20.7651 12.8936C20.8144 12.7635 20.8826 12.6507 20.9696 12.555C21.0565 12.4594 21.161 12.3843 21.2829 12.3298C21.4048 12.2753 21.5384 12.248 21.6837 12.248C21.8289 12.248 21.9625 12.2753 22.0845 12.3298C22.2064 12.3843 22.3108 12.4594 22.3978 12.555C22.4848 12.6507 22.5529 12.7635 22.6022 12.8936C22.6516 13.0237 22.6762 13.1642 22.6762 13.3153C22.6762 13.4664 22.6516 13.607 22.6022 13.7371C22.5529 13.8672 22.4848 13.98 22.3978 14.0756C22.3108 14.1713 22.2064 14.2464 22.0845 14.3009C21.9625 14.3554 21.8289 14.3826 21.6837 14.3826ZM21.6837 14.1244C21.7931 14.1244 21.8917 14.1029 21.9796 14.0599C22.0674 14.0168 22.1427 13.959 22.2055 13.8863C22.2683 13.8136 22.3167 13.728 22.3507 13.6295C22.3848 13.531 22.4018 13.4263 22.4018 13.3153C22.4018 13.2044 22.3848 13.0997 22.3507 13.0012C22.3167 12.9027 22.2683 12.8171 22.2055 12.7444C22.1427 12.6717 22.0674 12.6139 21.9796 12.5708C21.8917 12.5278 21.7931 12.5063 21.6837 12.5063C21.5743 12.5063 21.4757 12.5278 21.3878 12.5708C21.2999 12.6139 21.2246 12.6717 21.1619 12.7444C21.0991 12.8171 21.0507 12.9027 21.0166 13.0012C20.9826 13.0997 20.9655 13.2044 20.9655 13.3153C20.9655 13.4263 20.9826 13.531 21.0166 13.6295C21.0507 13.728 21.0991 13.8136 21.1619 13.8863C21.2246 13.959 21.2999 14.0168 21.3878 14.0599C21.4757 14.1029 21.5743 14.1244 21.6837 14.1244ZM23.0474 12.2997H23.7171C23.8391 12.2997 23.9395 12.3174 24.0184 12.3528C24.0973 12.3882 24.1596 12.4331 24.2053 12.4876C24.2511 12.5421 24.2829 12.6033 24.3008 12.6712C24.3188 12.7391 24.3277 12.8046 24.3277 12.8678C24.3277 12.9328 24.317 12.9954 24.2954 13.0557C24.2739 13.1159 24.243 13.1705 24.2026 13.2192C24.1623 13.268 24.113 13.3091 24.0547 13.3426C23.9964 13.3761 23.9314 13.3966 23.8597 13.4043L24.4003 14.331H24.0776L23.5934 13.4358H23.3056V14.331H23.0474V12.2997ZM23.3056 13.1948H23.6445C23.6947 13.1948 23.7445 13.1905 23.7938 13.1819C23.8431 13.1733 23.887 13.1575 23.9256 13.1346C23.9642 13.1116 23.9951 13.0786 24.0184 13.0356C24.0417 12.9926 24.0534 12.9366 24.0534 12.8678C24.0534 12.7989 24.0417 12.743 24.0184 12.6999C23.9951 12.6569 23.9642 12.6239 23.9256 12.6009C23.887 12.578 23.8431 12.5622 23.7938 12.5536C23.7445 12.545 23.6947 12.5407 23.6445 12.5407H23.3056V13.1948ZM24.6908 12.2997H24.9491V13.1776H24.9706L25.8125 12.2997H26.1729L25.253 13.2379L26.2348 14.331H25.8582L24.9706 13.3153H24.9491V14.331H24.6908V12.2997Z" fill="black"/>
<path id="Vector" fill-rule="evenodd" clip-rule="evenodd" d="M3.95801 6.00598H5.73362C6.03061 6.00598 6.317 6.05463 6.59278 6.15193C6.86856 6.24924 7.11252 6.39745 7.32466 6.59658C7.5368 6.79571 7.70651 7.04575 7.8338 7.3467C7.96108 7.64766 8.02472 8.00179 8.02472 8.4091C8.02472 8.82093 7.95153 9.17732 7.80516 9.47828C7.65878 9.77924 7.46998 10.0281 7.23874 10.225C7.00751 10.4219 6.75083 10.569 6.46868 10.6663C6.18653 10.7636 5.90969 10.8122 5.63815 10.8122H3.95801V6.00598ZM5.35813 10.0383C5.60845 10.0383 5.84499 10.0078 6.06773 9.94668C6.29048 9.88559 6.48459 9.79055 6.65006 9.66157C6.81553 9.53259 6.94599 9.36514 7.04146 9.15922C7.13692 8.9533 7.18465 8.70327 7.18465 8.4091C7.18465 8.11946 7.14222 7.87055 7.05737 7.66237C6.97251 7.45419 6.85477 7.28561 6.70415 7.15663C6.55353 7.02764 6.37534 6.93261 6.16956 6.87151C5.96379 6.81041 5.73786 6.77987 5.49178 6.77987H4.75989V10.0383H5.35813ZM8.76933 6.00598H9.57122V10.8122H8.76933V6.00598ZM12.766 7.03783C12.6812 6.90658 12.5677 6.81041 12.4256 6.74932C12.2834 6.68822 12.1339 6.65767 11.9769 6.65767C11.8835 6.65767 11.7934 6.66899 11.7064 6.69162C11.6194 6.71424 11.5409 6.75045 11.4709 6.80023C11.4009 6.85001 11.3447 6.9145 11.3023 6.9937C11.2598 7.0729 11.2386 7.16681 11.2386 7.27542C11.2386 7.43835 11.2917 7.5628 11.3977 7.64879C11.5038 7.73478 11.6353 7.80945 11.7923 7.87281C11.9493 7.93617 12.1211 7.99726 12.3078 8.0561C12.4945 8.11493 12.6663 8.19639 12.8233 8.30048C12.9803 8.40457 13.1118 8.5426 13.2179 8.71458C13.324 8.88655 13.377 9.1151 13.377 9.40021C13.377 9.65818 13.3325 9.88332 13.2434 10.0757C13.1543 10.268 13.0344 10.4275 12.8838 10.5543C12.7332 10.681 12.5581 10.776 12.3587 10.8394C12.1593 10.9027 11.9493 10.9344 11.7287 10.9344C11.4487 10.9344 11.1792 10.8846 10.9204 10.7851C10.6616 10.6855 10.4389 10.518 10.2522 10.2827L10.8568 9.65817C10.9544 9.81657 11.0827 9.9399 11.2418 10.0281C11.4009 10.1164 11.5696 10.1605 11.7478 10.1605C11.8411 10.1605 11.9345 10.1469 12.0278 10.1198C12.1211 10.0926 12.206 10.0519 12.2824 9.9976C12.3587 9.94329 12.4203 9.87427 12.4669 9.79055C12.5136 9.70683 12.5369 9.61066 12.5369 9.50204C12.5369 9.32554 12.4839 9.18977 12.3778 9.09473C12.2718 8.99969 12.1402 8.91936 11.9832 8.85374C11.8263 8.78812 11.6544 8.72589 11.4677 8.66706C11.2811 8.60822 11.1092 8.5279 10.9522 8.42607C10.7953 8.32424 10.6637 8.18847 10.5577 8.01876C10.4516 7.84905 10.3986 7.62164 10.3986 7.33652C10.3986 7.08761 10.4463 6.87264 10.5418 6.69162C10.6372 6.51059 10.7624 6.36011 10.9172 6.24018C11.0721 6.12025 11.2492 6.03087 11.4487 5.97204C11.6481 5.91321 11.8517 5.88379 12.0596 5.88379C12.2972 5.88379 12.5274 5.92226 12.7501 5.99919C12.9729 6.07613 13.1733 6.20285 13.3515 6.37935L12.766 7.03783ZM17.3037 7.13287C17.1382 6.94279 16.9781 6.81607 16.8232 6.75271C16.6683 6.68935 16.5124 6.65767 16.3554 6.65767C16.1221 6.65767 15.911 6.7018 15.7222 6.79005C15.5334 6.8783 15.3711 7.00049 15.2353 7.15663C15.0996 7.31276 14.9946 7.49492 14.9203 7.7031C14.8461 7.91128 14.8089 8.13529 14.8089 8.37515C14.8089 8.63312 14.8461 8.87071 14.9203 9.08794C14.9946 9.30518 15.0996 9.49299 15.2353 9.65139C15.3711 9.80978 15.5334 9.93424 15.7222 10.0248C15.911 10.1153 16.1221 10.1605 16.3554 10.1605C16.5379 10.1605 16.715 10.1141 16.8868 10.0214C17.0587 9.92858 17.2188 9.78037 17.3673 9.57671L18.0292 10.0791C17.8256 10.3778 17.5774 10.595 17.2846 10.7308C16.9919 10.8665 16.68 10.9344 16.3491 10.9344C16.0012 10.9344 15.6819 10.8744 15.3913 10.7545C15.1006 10.6346 14.8503 10.4649 14.6403 10.2454C14.4303 10.0259 14.2659 9.76227 14.1471 9.45452C14.0283 9.14678 13.9689 8.80509 13.9689 8.42946C13.9689 8.04478 14.0283 7.69518 14.1471 7.38065C14.2659 7.06611 14.4303 6.79797 14.6403 6.57621C14.8503 6.35445 15.1006 6.18361 15.3913 6.06368C15.6819 5.94375 16.0012 5.88379 16.3491 5.88379C16.6546 5.88379 16.9378 5.94149 17.1987 6.05689C17.4596 6.1723 17.7025 6.36803 17.9274 6.6441L17.3037 7.13287ZM23.3497 6.00598H24.2725L25.5008 9.63781L26.7672 6.00598H27.6328L25.8126 10.8122H25.1189L23.3497 6.00598ZM28.1165 6.00598H31.1013V6.77987H28.9183V7.96106H30.9867V8.73494H28.9183V10.0383H31.2158V10.8122H28.1165V6.00598ZM32.005 6.00598H33.5706C33.7869 6.00598 33.9959 6.02748 34.1974 6.07047C34.399 6.11347 34.5782 6.18701 34.7352 6.2911C34.8922 6.39519 35.0173 6.53548 35.1107 6.71198C35.204 6.88848 35.2507 7.1125 35.2507 7.38404C35.2507 7.73252 35.1605 8.02442 34.9802 8.25975C34.7999 8.49509 34.5422 8.63764 34.207 8.68742L35.4034 10.8122H34.4361L33.3924 8.77567H32.8069V10.8122H32.005V6.00598ZM33.4305 8.04252C33.5451 8.04252 33.6597 8.03686 33.7742 8.02555C33.8888 8.01424 33.9938 7.98708 34.0892 7.94409C34.1847 7.90109 34.2621 7.83547 34.3215 7.74722C34.3809 7.65897 34.4106 7.53565 34.4106 7.37725C34.4106 7.23696 34.3831 7.12382 34.3279 7.03783C34.2727 6.95184 34.2006 6.88735 34.1115 6.84436C34.0224 6.80136 33.9238 6.77308 33.8156 6.7595C33.7074 6.74592 33.6024 6.73914 33.5006 6.73914H32.8069V8.04252H33.4305Z" fill="black"/>
<path id="Oval-1" d="M20.9099 10.9374C22.2182 10.9374 23.2788 9.80613 23.2788 8.41061C23.2788 7.01508 22.2182 5.88379 20.9099 5.88379C19.6016 5.88379 18.541 7.01508 18.541 8.41061C18.541 9.80613 19.6016 10.9374 20.9099 10.9374Z" fill="#D97B16"/>
</g>
</g>
</svg>
