<svg width="40" height="27" viewBox="0 0 40 27" fill="none" xmlns="http://www.w3.org/2000/svg">
<g id="Group 21">
<g id="Group">
<path id="Vector" fill-rule="evenodd" clip-rule="evenodd" d="M0.193359 24.0733V1.77986C0.193359 1.77986 0.476911 0 2.86052 0C5.24412 0 37.3098 0.0601779 37.3098 0.0601779C37.3098 0.0601779 39.1263 0.0601779 39.1263 2.66864C39.1263 5.2771 39.1263 24.6079 39.1263 24.6079C39.1263 24.6079 38.9557 26.3878 36.7427 26.3878C34.5297 26.3878 2.46399 26.3878 2.46399 26.3878C2.46399 26.3878 0.534507 26.5637 0.193359 24.0733Z" fill="#8C0B39"/>
<path id="Vector_2" fill-rule="evenodd" clip-rule="evenodd" d="M38.0274 15.3572V11.522H28.3423C28.3423 11.522 28.1717 11.5614 28.1717 11.3646C28.1717 11.1679 28.1739 9.17046 28.1739 9.17046C28.1739 9.17046 28.1341 9.00613 28.3999 9.00613C28.6657 9.00613 37.1767 8.99918 37.1767 8.99918C37.1767 8.99918 37.972 9.03159 37.972 8.10115C37.972 7.17303 37.972 5.37234 37.972 5.37234C37.972 5.37234 37.8767 1.81493 33.9424 1.28027C33.0165 1.28027 28.6259 1.28027 28.6259 1.28027C28.6259 1.28027 24.4125 1.2849 24.1289 5.77043C24.1289 9.84167 24.1422 11.4572 24.1422 11.4572C24.1422 11.4572 24.3682 15.1535 28.38 15.3548L38.0274 15.3572Z" fill="white"/>
<path id="Vector_3" fill-rule="evenodd" clip-rule="evenodd" d="M28.3006 5.02539H33.8896V6.18265C33.8896 6.18265 33.945 6.30069 33.7191 6.30069C33.4931 6.30069 28.1189 6.30069 28.1189 6.30069L28.1145 5.2337C28.1167 5.2337 28.0879 5.02539 28.3006 5.02539Z" fill="#8C0B39"/>
<path id="Vector_4" fill-rule="evenodd" clip-rule="evenodd" d="M10.8077 22.943L10.4953 24.1998L6.83576 24.1952C6.83576 24.1952 5.74364 24.2091 5.71484 22.9361C5.9851 21.677 6.36834 20.3716 6.36834 20.3716C6.36834 20.3716 6.6231 19.3046 7.90129 19.3185C9.0931 19.3324 10.3846 19.3278 10.3846 19.3278C10.3846 19.3278 11.5121 19.4088 11.4058 20.5035C11.3216 21.3784 11.2352 21.4826 11.2352 21.4826C11.2352 21.4826 11.2773 22.0311 10.4267 22.0126L7.57565 22.0033C7.57565 22.0033 7.37628 21.9732 7.2921 22.1954C7.20792 22.4176 7.10823 22.6699 7.10823 22.6699C7.10823 22.6699 7.05064 22.9338 7.2633 22.95L10.8077 22.943Z" fill="white"/>
<path id="Vector_5" fill-rule="evenodd" clip-rule="evenodd" d="M7.8857 20.6047H9.89936C9.89936 20.6047 10.0411 20.5746 10.0123 20.7389C9.98354 20.901 10.0544 21.1532 9.71328 21.1532C9.37213 21.1532 7.69962 21.1625 7.69962 21.1625C7.69962 21.1625 7.52904 21.1833 7.57113 21.0352C7.61544 20.8848 7.65753 20.5885 7.8857 20.6047Z" fill="#8C0B39"/>
<path id="Vector_6" fill-rule="evenodd" clip-rule="evenodd" d="M13.8438 24.1938L15.1352 19.4212C15.1352 19.4212 15.4609 18.3681 16.3403 18.3681C16.5397 18.3543 16.7524 18.382 16.7524 18.382L16.5397 19.375L17.603 19.3865L17.2774 20.7776L16.3558 20.7683C16.3558 20.7683 16.1853 20.7382 16.1011 20.9905C15.9881 21.3261 15.2061 24.1984 15.2061 24.1984L13.8438 24.1938Z" fill="white"/>
<path id="Vector_7" fill-rule="evenodd" clip-rule="evenodd" d="M10.877 24.203L12.5805 17.963C12.5805 17.963 12.9925 17.0303 13.9008 17.0303C14.809 17.0303 15.2631 17.0349 15.2631 17.0349L14.9641 18.2894H14.2552C14.2552 18.2894 13.8587 18.2454 13.7723 18.5278C13.6881 18.8101 13.6305 19.0161 13.6305 19.0161C13.6305 19.0161 13.4887 19.3564 13.7723 19.3564C14.0558 19.3564 14.6938 19.361 14.6938 19.361L14.3394 20.7196H13.5884C13.5884 20.7196 13.2052 20.6571 13.1055 21.0321C12.9881 21.4765 12.2548 24.2053 12.2548 24.2053H10.877V24.203Z" fill="white"/>
<path id="Vector_8" fill-rule="evenodd" clip-rule="evenodd" d="M16.3818 25.4527L17.773 20.3377C17.773 20.3377 18.1142 19.3447 19.1066 19.3447C20.099 19.3447 21.787 19.3447 21.787 19.3447C21.787 19.3447 22.9212 19.3887 22.795 20.664L22.1858 23.0942C22.1858 23.0942 21.9731 24.1913 20.5531 24.1913C19.1354 24.1913 18.5661 24.1913 18.5661 24.1913L18.9072 22.798L20.5664 22.8119C20.5664 22.8119 20.9076 22.872 20.9785 22.5318C21.0914 22.1175 21.4038 20.9302 21.4038 20.9302C21.4038 20.9302 21.5323 20.708 21.2332 20.708C20.9364 20.708 19.3458 20.708 19.3458 20.708C19.3458 20.708 19.0756 20.6478 18.9914 20.9441C18.8917 21.2843 17.742 25.4643 17.742 25.4643L16.3818 25.4527Z" fill="white"/>
<path id="Vector_9" fill-rule="evenodd" clip-rule="evenodd" d="M22.7529 22.5771L23.2912 20.501C23.2912 20.501 23.6035 19.3438 24.6381 19.3438C25.6748 19.3438 27.3207 19.3438 27.3207 19.3438C27.3207 19.3438 28.641 19.4317 28.3841 20.6769C28.1293 21.9221 27.7882 23.0794 27.7882 23.0794C27.7882 23.0794 27.5467 24.1903 26.2264 24.1903C24.9061 24.1903 23.9425 24.1903 23.9425 24.1903C23.9425 24.1903 22.4273 24.195 22.7529 22.5771Z" fill="white"/>
<path id="Vector_10" fill-rule="evenodd" clip-rule="evenodd" d="M24.9374 20.6943L26.7251 20.7036C26.7251 20.7036 27.0375 20.648 26.9954 20.8702C26.9533 21.0924 26.57 22.4858 26.57 22.4858C26.57 22.4858 26.4859 22.7219 26.2444 22.7381C25.9033 22.7589 24.2861 22.7381 24.2861 22.7381C24.2861 22.7381 24.0735 22.7519 24.1443 22.5159C24.2418 22.1895 24.5985 20.8564 24.5985 20.8564C24.5985 20.8564 24.6118 20.6943 24.9374 20.6943Z" fill="#8C0B39"/>
<path id="Vector_11" fill-rule="evenodd" clip-rule="evenodd" d="M28.1299 24.202L28.4289 22.8804L31.6499 22.8758C31.6499 22.8758 31.9335 22.9359 32.0044 22.6096C32.0331 22.3735 32.0331 22.3457 32.0331 22.3457L30.1613 22.3434C30.1613 22.3434 28.6992 22.4175 28.7856 20.964C28.8698 19.5105 29.9641 19.3184 30.3318 19.3184C30.6996 19.3184 33.9205 19.3184 33.9205 19.3184L33.5949 20.5775H30.5312C30.5312 20.5775 30.3053 20.5474 30.2609 20.8297C30.2609 20.8297 30.1059 21.1121 30.3894 21.126C30.673 21.1399 32.2901 21.126 32.2901 21.126C32.2901 21.126 33.5528 21.082 33.4819 22.3573C33.411 23.6326 32.7287 24.195 31.9202 24.195L28.1299 24.202Z" fill="white"/>
</g>
</g>
</svg>
