<svg width="90" height="64" viewBox="0 0 90 64" fill="none" xmlns="http://www.w3.org/2000/svg">
<path d="M78.75 3.875H11.25C10.5041 3.875 9.78871 4.17132 9.26126 4.69876C8.73382 5.22621 8.4375 5.94158 8.4375 6.6875V54.5C8.4375 55.9918 9.03013 57.4226 10.085 58.4775C11.1399 59.5324 12.5707 60.125 14.0625 60.125H75.9375C77.4293 60.125 78.8601 59.5324 79.915 58.4775C80.9699 57.4226 81.5625 55.9918 81.5625 54.5V6.6875C81.5625 5.94158 81.2662 5.22621 80.7387 4.69876C80.2113 4.17132 79.4959 3.875 78.75 3.875ZM45 33.8105L18.4816 9.5H71.5184L45 33.8105ZM34.7027 32L14.0625 50.9176V13.0824L34.7027 32ZM38.8652 35.8145L43.084 39.6992C43.6029 40.1755 44.2816 40.4398 44.9859 40.4398C45.6903 40.4398 46.369 40.1755 46.8879 39.6992L51.1066 35.8145L71.4973 54.5H18.4816L38.8652 35.8145ZM55.2973 32L75.9375 13.0789V50.9211L55.2973 32Z" fill="#2EA7E0"/>
</svg>
