<svg width="107" height="110" viewBox="0 0 107 110" fill="none" xmlns="http://www.w3.org/2000/svg">
<path d="M106.272 48.1561V98.6408C106.272 104.914 101.186 110 94.9129 110H11.6131C5.34036 110 0.254028 104.914 0.254028 98.6408V48.1561L45.2454 3.31306C49.6786 -1.10435 56.8506 -1.10435 61.2837 3.31306L106.275 48.1561H106.272Z" fill="url(#paint0_linear_31_105)"/>
<path d="M86.1222 12.6464H20.4921C14.2187 12.6464 9.13306 17.732 9.13306 24.0055V89.6356C9.13306 95.909 14.2187 100.995 20.4921 100.995H86.1222C92.3957 100.995 97.4813 95.909 97.4813 89.6356V24.0055C97.4813 17.732 92.3957 12.6464 86.1222 12.6464Z" fill="url(#paint1_linear_31_105)"/>
<path d="M106.272 48.1562V98.6409C106.272 104.914 101.186 110 94.9129 110H53.263L53.1936 101.235L106.272 48.1562Z" fill="url(#paint2_linear_31_105)"/>
<path d="M0.115234 48.1562V98.6409C0.115234 104.914 5.20157 110 11.4743 110H53.1242L53.1936 101.235L0.115234 48.1562Z" fill="url(#paint3_linear_31_105)"/>
<path d="M102.981 106.64C101.189 108.448 98.7971 109.653 96.1245 109.94L11.2093 109.997C8.21488 109.893 5.5171 108.627 3.54504 106.643L45.2296 64.9582C49.666 60.5219 56.8569 60.5219 61.2933 64.9582L102.978 106.643L102.981 106.64Z" fill="url(#paint4_linear_31_105)"/>
<rect x="16.9655" y="22.7586" width="72.069" height="1.89655" fill="url(#paint5_linear_31_105)"/>
<rect x="16.9655" y="32.2414" width="72.069" height="1.89655" fill="url(#paint6_linear_31_105)"/>
<rect x="16.9655" y="41.7241" width="72.069" height="1.89655" fill="url(#paint7_linear_31_105)"/>
<rect x="16.9655" y="51.2069" width="72.069" height="1.89655" fill="url(#paint8_linear_31_105)"/>
<defs>
<linearGradient id="paint0_linear_31_105" x1="53.263" y1="110" x2="53.263" y2="0" gradientUnits="userSpaceOnUse">
<stop offset="0.5" stop-color="#302794"/>
<stop offset="1" stop-color="#4E6AFF"/>
</linearGradient>
<linearGradient id="paint1_linear_31_105" x1="53.3072" y1="100.995" x2="53.3072" y2="12.6464" gradientUnits="userSpaceOnUse">
<stop offset="0.260417" stop-color="#A8C8EE"/>
<stop offset="0.41" stop-color="#D0E9FF"/>
<stop offset="0.54" stop-color="#D2EAFF"/>
<stop offset="0.67" stop-color="#E1EDFF"/>
<stop offset="0.8" stop-color="#E5EFFE"/>
</linearGradient>
<linearGradient id="paint2_linear_31_105" x1="62.6437" y1="119.381" x2="120.07" y2="61.9543" gradientUnits="userSpaceOnUse">
<stop offset="0.2" stop-color="#111A45"/>
<stop offset="0.8" stop-color="#879CFF"/>
</linearGradient>
<linearGradient id="paint3_linear_31_105" x1="43.7435" y1="119.381" x2="-13.6829" y2="61.9543" gradientUnits="userSpaceOnUse">
<stop offset="0.2" stop-color="#111A45"/>
<stop offset="0.8" stop-color="#879CFF"/>
</linearGradient>
<linearGradient id="paint4_linear_31_105" x1="53.263" y1="121" x2="53.263" y2="61.6262" gradientUnits="userSpaceOnUse">
<stop stop-color="#111A45"/>
<stop offset="1" stop-color="#9DAEFF"/>
</linearGradient>
<linearGradient id="paint5_linear_31_105" x1="16.9655" y1="23.7069" x2="89.0344" y2="23.7069" gradientUnits="userSpaceOnUse">
<stop stop-color="#6471AD"/>
<stop offset="1" stop-color="#9CADFF"/>
</linearGradient>
<linearGradient id="paint6_linear_31_105" x1="16.9655" y1="33.1897" x2="89.0344" y2="33.1897" gradientUnits="userSpaceOnUse">
<stop stop-color="#6471AD"/>
<stop offset="1" stop-color="#9CADFF"/>
</linearGradient>
<linearGradient id="paint7_linear_31_105" x1="16.9655" y1="42.6724" x2="89.0344" y2="42.6724" gradientUnits="userSpaceOnUse">
<stop stop-color="#6471AD"/>
<stop offset="1" stop-color="#9CADFF"/>
</linearGradient>
<linearGradient id="paint8_linear_31_105" x1="16.9655" y1="52.1552" x2="89.0344" y2="52.1552" gradientUnits="userSpaceOnUse">
<stop stop-color="#6471AD"/>
<stop offset="1" stop-color="#9CADFF"/>
</linearGradient>
</defs>
</svg>
