<svg width="37" height="27" viewBox="0 0 37 27" fill="none" xmlns="http://www.w3.org/2000/svg">
<g id="Group 144">
<path id="Vector" d="M36.6956 23.7837C36.6956 25.0152 35.7448 26.0136 34.572 26.0136H2.895C1.72221 26.0136 0.771484 25.0151 0.771484 23.7837V2.22977C0.771484 0.998262 1.72221 0 2.895 0H34.572C35.7448 0 36.6955 0.998335 36.6955 2.22977L36.6956 23.7837Z" fill="#E7E8E3"/>
<path id="Vector_2" d="M14.5372 4.70801H10.7726C8.94363 4.70801 7.71484 5.99831 7.71484 7.91865V13.6617C7.71484 13.6645 7.71512 13.6674 7.71562 13.6702C7.85994 14.3903 8.57878 14.9332 9.38763 14.9332C10.2806 14.9332 10.9538 14.2744 10.9538 13.4006V10.5326H13.2552V13.3632C13.2552 14.9774 11.2762 15.7393 9.93919 15.7459C9.1483 15.7424 8.37326 15.4874 7.81272 15.0459C7.80101 15.0367 7.78508 15.0351 7.77189 15.042C7.77189 15.042 7.77175 15.0421 7.77161 15.0422C7.76059 15.0364 7.74747 15.0362 7.73638 15.042C7.72326 15.049 7.71491 15.0632 7.71491 15.0787V21.4182C7.71491 21.4408 7.73232 21.4592 7.754 21.4592H11.6252C12.9901 21.4592 14.5764 20.1056 14.5764 18.3605V4.74904C14.5763 4.72628 14.5589 4.70801 14.5372 4.70801Z" fill="#0F549D"/>
<path id="Vector_3" d="M22.1025 4.70801H18.3734C16.5159 4.70801 15.3156 5.95366 15.3156 7.8816V11.1258C15.3156 11.1417 15.3243 11.1562 15.338 11.163C15.3518 11.1697 15.3679 11.1675 15.3796 11.1573C15.7051 10.8723 16.2299 10.5327 16.8817 10.5327H20.8915V11.2986C19.9179 11.0748 19.0173 10.9728 18.5863 10.9728C17.5659 10.9728 16.7358 11.8444 16.7358 12.9157L16.7361 12.9276L16.7358 12.953C16.7358 14.0243 17.5659 14.8959 18.5863 14.8959C19.1091 14.8959 20.0191 14.8066 20.8915 14.6074V15.2986H16.8817C16.305 15.2986 15.7584 15.0718 15.3822 14.6765C15.3709 14.6647 15.3541 14.6612 15.3396 14.6676C15.3249 14.674 15.3154 14.6889 15.3154 14.7055V21.4179C15.3154 21.4406 15.3328 21.459 15.3545 21.459H19.1899C20.5549 21.459 22.1414 20.1054 22.1414 18.3602V4.74904C22.1415 4.72628 22.1241 4.70801 22.1025 4.70801Z" fill="#B41F36"/>
<g id="Group">
<path id="Vector_4" d="M24.1592 14.8189C24.1592 14.8415 24.1767 14.86 24.1983 14.86H25.8674C26.3155 14.86 26.7235 14.4315 26.7235 13.9612C26.7235 13.4909 26.3155 13.0625 25.8674 13.0625H24.1983C24.1768 13.0625 24.1592 13.0808 24.1592 13.1035V14.8189Z" fill="#329947"/>
<path id="Vector_5" d="M29.7744 4.70898H26.0806C25.0974 4.70898 24.2984 5.05812 23.764 5.67262C23.764 5.67262 22.9873 6.46806 22.9873 7.78002C22.9873 7.8285 22.9873 7.87454 22.9873 7.91956V9.09198V10.4926C22.9873 10.5153 23.0047 10.5337 23.0264 10.5337H27.5015C28.1156 10.5337 28.6345 11.0786 28.6345 11.7234C28.6345 12.3683 28.1156 12.9131 27.5015 12.9131C27.4799 12.9131 27.4624 12.9314 27.4624 12.9541C27.4624 12.9768 27.4798 12.9951 27.5015 12.9951C28.1964 12.9951 28.741 13.5013 28.741 14.1475C28.741 14.8045 28.2081 15.3 27.5015 15.3H23.0264C23.0048 15.3 22.9873 15.3183 22.9873 15.341V21.4193C22.9873 21.4419 23.0047 21.4603 23.0264 21.4603H26.8622C28.2271 21.4603 29.8135 20.1067 29.8135 18.3616V4.75002C29.8135 4.72726 29.7959 4.70898 29.7744 4.70898Z" fill="#329947"/>
<path id="Vector_6" d="M24.1983 12.7339H25.8674C26.3122 12.7339 26.6879 12.3394 26.6879 11.8724C26.6879 11.402 26.28 10.9736 25.8322 10.9736H24.1983C24.1768 10.9736 24.1592 10.992 24.1592 11.0147V12.6929C24.1592 12.7155 24.1767 12.7339 24.1983 12.7339Z" fill="#329947"/>
</g>
</g>
</svg>
