<svg width="240" height="32" viewBox="0 0 240 32" fill="none" xmlns="http://www.w3.org/2000/svg">
<g clipPath="url(#clip0_442_8)">
<path d="M28.5097 12.5504C28.5097 19.6299 23.121 24.0902 14.6465 24.0902H10.2582V31.6062H0V1.01068H14.6465C23.121 1.01068 28.5097 5.4662 28.5097 12.5504ZM18.1665 12.5504C18.1665 10.3203 16.817 8.96798 13.9953 8.96798H10.2582V16.1376H13.9953C16.8217 16.1376 18.1665 14.7805 18.1665 12.5552V12.5504Z" fill="#0131B8"/>
<path d="M29.9253 1.01068H44.9209C55.0895 1.01068 62.0871 6.82325 62.0871 16.3084C62.0871 25.7936 55.0895 31.6062 44.9209 31.6062H29.9253V1.01068ZM44.4868 23.5635C48.7902 23.5635 51.744 20.987 51.744 16.3084C51.744 11.6299 48.7902 9.05339 44.4868 9.05339H40.1835V23.5635H44.4868Z" fill="#0131B8"/>
<path d="M74.1525 8.78767V14.0308H86.8455V21.8126H74.1525V31.6014H63.8943V1.01068H88.6244V8.79241H74.1525V8.78767Z" fill="#0131B8"/>
<path d="M101.516 30.6667C100.883 30.0498 100.572 29.2242 100.572 28.1898V5.83155H93.4515C91.281 5.83155 90.2004 4.8873 90.2004 3.00355C90.2004 1.1198 91.2857 0.218262 93.4515 0.218262H114.544C116.709 0.218262 117.795 1.14827 117.795 3.00355C117.795 4.85883 116.709 5.83155 114.544 5.83155H107.423V28.1898C107.423 29.2194 107.117 30.0451 106.498 30.6667C105.885 31.2835 105.05 31.5967 103.993 31.5967C102.936 31.5967 102.138 31.2882 101.511 30.6667H101.516Z" fill="#2EA7E0"/>
<path d="M132.535 11.4686C134.06 13.0154 134.819 15.3784 134.819 18.5623V28.5504C134.819 29.5231 134.541 30.2823 133.984 30.828C133.427 31.3737 132.649 31.6441 131.653 31.6441C130.714 31.6441 129.959 31.3547 129.388 30.7805C128.817 30.2064 128.529 29.4614 128.529 28.5504V28.242C128.091 29.3333 127.359 30.1874 126.331 30.8043C125.307 31.4211 124.103 31.7343 122.726 31.7343C121.258 31.7343 119.937 31.4401 118.748 30.8517C117.563 30.2633 116.624 29.4377 115.935 28.3748C115.247 27.312 114.902 26.1352 114.902 24.8398C114.902 23.2503 115.303 21.9976 116.11 21.0818C116.917 20.1708 118.21 19.5065 119.998 19.0937C121.787 18.6809 124.231 18.4769 127.336 18.4769H128.477V17.6797C128.477 16.4413 128.208 15.5445 127.666 14.9846C127.123 14.4247 126.222 14.1447 124.962 14.1447C123.702 14.1447 121.886 14.586 119.512 15.4686C118.837 15.7912 118.266 15.9525 117.799 15.9525C117.153 15.9525 116.643 15.7248 116.261 15.2693C115.879 14.8138 115.69 14.2159 115.69 13.4804C115.69 12.892 115.822 12.4033 116.086 12.0237C116.351 11.6394 116.775 11.2882 117.36 10.9608C118.384 10.4009 119.64 9.95966 121.116 9.637C122.593 9.31434 124.051 9.15302 125.491 9.15302C128.657 9.15302 130.997 9.92644 132.521 11.4733L132.535 11.4686ZM127.307 25.8315C128.1 24.9632 128.492 23.8339 128.492 22.4531V21.7034H127.746C125.373 21.7034 123.712 21.8932 122.759 22.2776C121.805 22.6619 121.329 23.3547 121.329 24.3559C121.329 25.1815 121.598 25.8505 122.14 26.3677C122.683 26.8849 123.363 27.1412 124.184 27.1412C125.472 27.1412 126.515 26.7094 127.303 25.8363L127.307 25.8315Z" fill="#2EA7E0"/>
<path d="M140.08 30.8422C139.448 30.3108 139.137 29.5326 139.137 28.4982V3.13643C139.137 2.10678 139.453 1.32386 140.08 0.792423C140.708 0.260987 141.51 -0.00473022 142.477 -0.00473022C143.445 -0.00473022 144.2 0.260987 144.827 0.792423C145.455 1.32386 145.771 2.10203 145.771 3.13643V28.503C145.771 29.5326 145.455 30.3156 144.827 30.847C144.195 31.3784 143.412 31.6441 142.477 31.6441C141.543 31.6441 140.713 31.3784 140.08 30.847V30.8422Z" fill="#2EA7E0"/>
<path d="M171.596 28.4128C171.596 29.2384 171.294 29.9739 170.695 30.624C170.095 31.274 169.397 31.5967 168.609 31.5967C167.821 31.5967 167.142 31.2883 166.5 30.6667L156.874 21.694V28.4555C156.874 29.4852 156.558 30.2681 155.93 30.7995C155.298 31.331 154.515 31.5967 153.58 31.5967C152.646 31.5967 151.816 31.331 151.183 30.7995C150.551 30.2681 150.24 29.4899 150.24 28.4555V3.13643C150.24 2.10678 150.556 1.32386 151.183 0.792423C151.811 0.260987 152.613 -0.00473022 153.58 -0.00473022C154.548 -0.00473022 155.303 0.260987 155.93 0.792423C156.558 1.32386 156.874 2.10203 156.874 3.13643V18.9561L165.665 10.2491C166.311 9.60381 167.028 9.27641 167.816 9.27641C168.604 9.27641 169.355 9.58008 169.968 10.1827C170.581 10.7853 170.893 11.5018 170.893 12.3274C170.893 13.0961 170.558 13.8173 169.883 14.4911L164.037 20.1044L170.586 26.2017C171.261 26.8517 171.596 27.5872 171.596 28.4128Z" fill="#2EA7E0"/>
<path d="M180.972 31.2218C180.5 30.7473 180.264 30.1068 180.264 29.2906V10.3345C180.264 9.54686 180.476 8.93476 180.906 8.50771C181.33 8.08066 181.939 7.8624 182.722 7.8624H191.173C193.754 7.8624 195.764 8.5172 197.199 9.82681C198.633 11.1364 199.355 12.9632 199.355 15.312C199.355 17.6607 198.638 19.4875 197.199 20.7972C195.764 22.1068 193.754 22.7616 191.173 22.7616H185.516V29.2954C185.516 30.1068 185.28 30.7521 184.808 31.2266C184.336 31.7011 183.699 31.9383 182.887 31.9383C182.076 31.9383 181.439 31.7011 180.967 31.2266L180.972 31.2218ZM190.499 18.7616C193.127 18.7616 194.439 17.6228 194.439 15.3405C194.439 13.0581 193.127 11.8861 190.499 11.8861H185.516V18.7568H190.499V18.7616Z" fill="#0131B8"/>
<path d="M212.397 15.2218C212.789 15.573 212.987 16.0949 212.987 16.7972C212.987 17.5421 212.808 18.0973 212.449 18.4579C212.091 18.8185 211.449 19.0463 210.529 19.1364L209.519 19.2361C208.283 19.3737 207.391 19.777 206.844 20.4555C206.292 21.134 206.018 22.0024 206.018 23.0605V29.5279C206.018 30.3203 205.777 30.9181 205.296 31.3215C204.815 31.7295 204.211 31.9288 203.494 31.9288C202.776 31.9288 202.139 31.7248 201.658 31.3215C201.177 30.9134 200.936 30.3155 200.936 29.5279V17.1056C200.936 16.3606 201.181 15.7865 201.677 15.3784C202.172 14.9703 202.767 14.7711 203.46 14.7711C204.154 14.7711 204.697 14.9703 205.145 15.3642C205.593 15.758 205.82 16.3084 205.82 17.0059V17.9217C206.226 16.9537 206.834 16.2088 207.655 15.6868C208.476 15.1696 209.368 14.8754 210.331 14.809L210.803 14.7758C211.477 14.7331 212.011 14.8849 212.402 15.2313L212.397 15.2218Z" fill="#0131B8"/>
<path d="M217.762 30.9324C216.437 30.2206 215.417 29.2195 214.7 27.9193C213.983 26.624 213.624 25.0913 213.624 23.331C213.624 21.5706 213.983 20.0427 214.7 18.7426C215.417 17.4472 216.441 16.446 217.762 15.7485C219.088 15.051 220.622 14.6999 222.377 14.6999C224.133 14.6999 225.666 15.051 226.987 15.7485C228.313 16.446 229.332 17.4472 230.05 18.7426C230.767 20.0427 231.125 21.5706 231.125 23.331C231.125 25.0913 230.767 26.6192 230.05 27.9193C229.332 29.2195 228.308 30.2206 226.987 30.9324C225.661 31.6441 224.128 32 222.377 32C220.627 32 219.088 31.6441 217.762 30.9324ZM226.077 23.331C226.077 21.7272 225.756 20.5314 225.119 19.7438C224.477 18.9561 223.566 18.5575 222.377 18.5575C219.909 18.5575 218.673 20.1471 218.673 23.331C218.673 26.5148 219.909 28.1044 222.377 28.1044C224.845 28.1044 226.081 26.5148 226.081 23.331H226.077Z" fill="#0131B8"/>
<path d="M234.598 31.1032C234.06 30.548 233.792 29.8553 233.792 29.0202C233.792 28.185 234.06 27.4923 234.598 26.9371C235.136 26.382 235.82 26.1068 236.651 26.1068C237.481 26.1068 238.166 26.382 238.704 26.9371C239.241 27.4923 239.51 28.185 239.51 29.0202C239.51 29.8553 239.241 30.548 238.704 31.1032C238.166 31.6584 237.481 31.9336 236.651 31.9336C235.82 31.9336 235.136 31.6584 234.598 31.1032Z" fill="#0131B8"/>
</g>
<defs>
<clipPath id="clip0_442_8">
<rect width="240" height="32" fill="white"/>
</clipPath>
</defs>
</svg>
