<svg width="37" height="25" viewBox="0 0 37 25" fill="none" xmlns="http://www.w3.org/2000/svg">
<g id="Page-1">
<g id="Master">
<path id="Rectangle-1" fill-rule="evenodd" clip-rule="evenodd" d="M34.0348 0.257813C32.212 0.257813 12.913 0.257812 2.13533 0.257813C1.22391 0.257813 0.3125 1.23208 0.3125 2.20635V21.6918C0.3125 23.6403 1.22391 24.6146 3.04674 24.6146C13.2143 24.6146 32.212 24.6146 34.0348 24.6146C35.8577 24.6146 36.7691 23.6403 36.7691 21.6918V3.18062C36.7691 1.23208 35.8577 0.257813 34.0348 0.257813Z" fill="#265697"/>
<path id="path2268" fill-rule="evenodd" clip-rule="evenodd" d="M34.3864 12.5564C34.3879 18.2164 30.1425 22.8056 24.9041 22.8071C19.6656 22.8085 15.4184 18.2216 15.417 12.5616V12.5564C15.4156 6.89658 19.661 2.30717 24.8992 2.30566C30.1376 2.30416 34.385 6.89126 34.3864 12.5512V12.5564Z" fill="#DFAC16"/>
<path id="path1350" fill-rule="evenodd" clip-rule="evenodd" d="M12.118 2.30767C6.91064 2.34341 2.69434 6.92091 2.69434 12.5558C2.69434 18.2126 6.9435 22.8038 12.1791 22.8038C14.6363 22.8038 16.8761 21.792 18.5616 20.1336C18.5614 20.1336 18.5612 20.1334 18.5608 20.1332H18.5628C18.908 19.7934 19.2298 19.4267 19.5257 19.0358H17.5825C17.323 18.6971 17.0872 18.3442 16.8754 17.9801H20.2267C20.4306 17.6277 20.6151 17.2618 20.7789 16.8828H16.3221C16.1702 16.5309 16.0383 16.1711 15.9257 15.8061H21.1757C21.4921 14.7846 21.6638 13.6917 21.6638 12.5557C21.6638 11.8025 21.5883 11.0681 21.4452 10.3611H15.6472C15.7191 9.99725 15.8097 9.63777 15.9179 9.28455H21.1698C21.0524 8.90865 20.916 8.54235 20.7609 8.18727H16.3215C16.4817 7.81762 16.6631 7.45803 16.8657 7.11082H20.2147C19.9918 6.72718 19.7452 6.36065 19.4785 6.01343H17.6113C17.9 5.64633 18.2178 5.30062 18.5628 4.97827C16.8773 3.3197 14.6368 2.30767 12.1791 2.30767C12.1586 2.30767 12.1384 2.30755 12.118 2.30767Z" fill="#BF3126"/>
<g id="Group">
<path id="path4157" fill-rule="evenodd" clip-rule="evenodd" d="M15.5881 15.1684L15.7145 14.2409C15.6454 14.2409 15.5438 14.2728 15.4542 14.2728C15.1027 14.2728 15.064 14.0709 15.0863 13.9216L15.3703 12.0291H15.9046L16.0336 11.0032H15.5298L15.6324 10.3652H14.6225C14.6002 10.3893 14.0264 13.9534 14.0264 14.3873C14.0264 15.0298 14.3602 15.316 14.831 15.3113C15.1997 15.308 15.4868 15.1978 15.5881 15.1684Z" fill="white"/>
<path id="path4155" fill-rule="evenodd" clip-rule="evenodd" d="M15.9082 13.3983C15.9082 14.9403 16.8502 15.3067 17.6527 15.3067C18.3935 15.3067 18.7194 15.1277 18.7194 15.1277L18.8973 14.0754C18.8973 14.0754 18.3338 14.3436 17.825 14.3436C16.7406 14.3436 16.9305 13.47 16.9305 13.47H18.9828C18.9828 13.47 19.1153 12.763 19.1153 12.4748C19.1153 11.7559 18.7841 10.8799 17.6753 10.8799C16.6599 10.8801 15.9082 12.0623 15.9082 13.3983ZM17.6792 11.8571C18.2491 11.8571 18.144 12.5491 18.144 12.6051H17.0228C17.0228 12.5336 17.1287 11.8571 17.6792 11.8571Z" fill="white"/>
<path id="path4151" fill-rule="evenodd" clip-rule="evenodd" d="M24.074 15.1664L24.2547 13.9768C24.2547 13.9768 23.7592 14.2453 23.4191 14.2453C22.7028 14.2453 22.4155 13.6543 22.4155 13.0193C22.4155 11.7312 23.0318 11.0225 23.718 11.0225C24.2325 11.0225 24.6455 11.3347 24.6455 11.3347L24.8104 10.1789C24.8104 10.1789 24.198 9.91113 23.673 9.91113C22.5072 9.91113 21.373 11.0039 21.373 13.0562C21.373 14.417 21.9855 15.3158 23.1906 15.3158C23.5313 15.316 24.074 15.1664 24.074 15.1664Z" fill="white"/>
<path id="path4149" fill-rule="evenodd" clip-rule="evenodd" d="M10.0331 10.8975C9.3406 10.8975 8.80976 11.1379 8.80976 11.1379L8.66322 12.0779C8.66322 12.0779 9.10135 11.8855 9.76364 11.8855C10.1397 11.8855 10.4148 11.9312 10.4148 12.2614C10.4148 12.462 10.3811 12.536 10.3811 12.536C10.3811 12.536 10.0845 12.5092 9.94712 12.5092C9.07373 12.5092 8.15625 12.9119 8.15625 14.1261C8.15625 15.0829 8.75817 15.3024 9.13122 15.3024C9.84371 15.3024 10.1508 14.8029 10.1672 14.8014L10.1339 15.2183H11.0231L11.4198 12.2133C11.4198 10.9385 10.3906 10.8975 10.0331 10.8975ZM10.2494 13.3441C10.2687 13.5277 10.1429 14.3881 9.53489 14.3881C9.22124 14.3881 9.13968 14.1292 9.13968 13.9761C9.13968 13.6775 9.28986 13.3189 10.0299 13.3189C10.202 13.3192 10.2204 13.3391 10.2494 13.3441Z" fill="white"/>
<path id="path4145" fill-rule="evenodd" clip-rule="evenodd" d="M12.3646 15.2796C12.5921 15.2796 13.8925 15.342 13.8925 13.8922C13.8925 12.5368 12.6888 12.8045 12.6888 12.26C12.6888 11.9889 12.885 11.9036 13.2436 11.9036C13.3859 11.9036 13.9337 11.9525 13.9337 11.9525L14.0611 10.989C14.0611 10.9891 13.7065 10.9033 13.1294 10.9033C12.3823 10.9033 11.624 11.2256 11.624 12.328C11.624 13.5773 12.8884 13.4519 12.8884 13.9782C12.8884 14.3294 12.5352 14.358 12.2629 14.358C11.7918 14.358 11.3676 14.1833 11.3661 14.1917L11.2314 15.1454C11.2559 15.1535 11.5175 15.2796 12.3646 15.2796Z" fill="white"/>
<path id="path4139" fill-rule="evenodd" clip-rule="evenodd" d="M32.4404 10.033L32.2225 11.4934C32.2225 11.4934 31.8424 10.9261 31.2473 10.9261C30.322 10.9261 29.5508 12.1315 29.5508 13.5166C29.5508 14.4106 29.9622 15.2866 30.8031 15.2866C31.408 15.2866 31.7434 14.8309 31.7434 14.8309L31.699 15.2201H32.6812L33.4527 10.0312L32.4404 10.033ZM31.9714 12.8805C31.9714 13.4569 31.7073 14.2267 31.1598 14.2267C30.7964 14.2267 30.626 13.8971 30.626 13.3797C30.626 12.5338 30.9777 11.9756 31.4214 11.9756C31.7849 11.9755 31.9714 12.2453 31.9714 12.8805Z" fill="white"/>
<path id="path4133" fill-rule="evenodd" clip-rule="evenodd" d="M4.56646 15.2251L5.18122 11.3077L5.27146 15.2251H5.96725L7.26518 11.3077L6.69024 15.2251H7.72408L8.52028 10.0293H6.92156L5.92593 13.2172L5.87412 10.0293H4.40043L3.59277 15.2251H4.56646Z" fill="white"/>
<path id="path4131" fill-rule="evenodd" clip-rule="evenodd" d="M20.1249 15.2311C20.4189 13.4249 20.4734 11.9584 21.1748 12.2268C21.2976 11.5278 21.4161 11.2574 21.5501 10.9615C21.5501 10.9615 21.4873 10.9473 21.3554 10.9473C20.9032 10.9473 20.5681 11.6149 20.5681 11.6149L20.6581 11.0017H19.7179L19.0879 15.2311H20.1249Z" fill="white"/>
<path id="path4149_1_" fill-rule="evenodd" clip-rule="evenodd" d="M26.405 10.8975C25.7126 10.8975 25.1817 11.1379 25.1817 11.1379L25.0353 12.0779C25.0353 12.0779 25.4734 11.8855 26.1357 11.8855C26.5118 11.8855 26.7867 11.9312 26.7867 12.2614C26.7867 12.462 26.7531 12.536 26.7531 12.536C26.7531 12.536 26.4565 12.5092 26.3191 12.5092C25.4458 12.5092 24.5283 12.9119 24.5283 14.1261C24.5283 15.0829 25.1301 15.3024 25.5032 15.3024C26.2157 15.3024 26.5228 14.8029 26.5391 14.8014L26.506 15.2183H27.3952L27.7918 12.2133C27.7919 10.9385 26.7626 10.8975 26.405 10.8975ZM26.6217 13.3441C26.641 13.5277 26.5151 14.3881 25.9068 14.3881C25.5932 14.3881 25.5119 14.1292 25.5119 13.9761C25.5119 13.6775 25.662 13.3189 26.4019 13.3189C26.5741 13.3192 26.5924 13.3391 26.6217 13.3441Z" fill="white"/>
<path id="path4131_1_" fill-rule="evenodd" clip-rule="evenodd" d="M28.6053 15.2311C28.8994 13.4249 28.9538 11.9584 29.6551 12.2268C29.7781 11.5278 29.8967 11.2574 30.0306 10.9615C30.0306 10.9615 29.9678 10.9473 29.8359 10.9473C29.3836 10.9473 29.0486 11.6149 29.0486 11.6149L29.1386 11.0017H28.1983L27.5684 15.2311H28.6053Z" fill="white"/>
</g>
</g>
</g>
</svg>
