<svg width="16" height="16" viewBox="0 0 16 16" fill="none" xmlns="http://www.w3.org/2000/svg">
<g clipPath="url(#clip0_1416_1257)">
<path fill-rule="evenodd" clip-rule="evenodd" d="M9.86018 2.26924C10.0327 2.09684 10.2666 2 10.5105 2C10.7544 2 10.9883 2.09684 11.1608 2.26924L13.7304 4.83715C13.9028 5.00967 13.9999 5.24379 13.9999 5.48768C13.9999 5.73157 13.9031 5.96549 13.7307 6.138L12.0454 7.82362C12.0389 7.83099 12.0322 7.83821 12.0251 7.84526C12.0181 7.85229 12.0109 7.85903 12.0036 7.86551L7.29027 12.5799H13.0798C13.3339 12.5799 13.5398 12.7859 13.5398 13.0399C13.5398 13.294 13.3339 13.4999 13.0798 13.4999H6.17994L6.1771 13.4999H3.41999C3.17599 13.4999 2.94199 13.403 2.76946 13.2304C2.59693 13.0579 2.5 12.8239 2.5 12.5799V10.0103C2.50011 9.76661 2.59689 9.53272 2.7691 9.36032L8.15464 3.97478L9.86018 2.26924ZM8.4799 4.95057L3.41999 10.0105L3.41999 12.5799H5.98938L11.0487 7.51938L8.4799 4.95057ZM11.6992 6.86877L9.13043 4.30004L10.5105 2.91999L13.0799 5.48768L11.6992 6.86877Z" fill="#1C1D22"/>
</g>
<defs>
<clipPath id="clip0_1416_1257">
<rect width="16" height="16" fill="white"/>
</clipPath>
</defs>
</svg>
