<svg width="13" height="14" viewBox="0 0 13 14" fill="none" xmlns="http://www.w3.org/2000/svg">
<path d="M13 6.99208C13.0005 7.17027 12.9514 7.34536 12.8579 7.49921C12.7644 7.65307 12.6299 7.78012 12.4682 7.86721L1.55229 13.8687C1.39545 13.9542 1.21835 13.9995 1.03805 14C0.871785 13.9997 0.708022 13.961 0.56049 13.8873C0.412958 13.8136 0.285957 13.7069 0.190131 13.5763C0.0943049 13.4456 0.0324474 13.2948 0.00974343 13.1364C-0.0129605 12.9781 0.00415071 12.8168 0.0596426 12.6661L1.83768 7.66843C1.8552 7.61898 1.88839 7.57606 1.93258 7.54567C1.97677 7.51529 2.02975 7.49898 2.08407 7.49903H6.75898C6.83028 7.49918 6.90085 7.48523 6.9663 7.45806C7.03176 7.43088 7.0907 7.39105 7.13948 7.34105C7.18825 7.29104 7.22581 7.23193 7.24982 7.16738C7.27384 7.10283 7.28379 7.03423 7.27907 6.96582C7.26727 6.83723 7.20539 6.71767 7.10582 6.63108C7.00624 6.5445 6.87632 6.49728 6.74208 6.49888H2.08862C2.03438 6.49897 1.98146 6.48275 1.93728 6.45249C1.89309 6.42222 1.85986 6.37943 1.84223 6.3301L0.0583424 1.32936C-0.0111263 1.13773 -0.018329 0.930327 0.0376911 0.734676C0.0937111 0.539025 0.210303 0.364388 0.371984 0.233956C0.533666 0.103523 0.732787 0.0234668 0.942905 0.00441721C1.15302 -0.0146324 1.3642 0.0282263 1.54838 0.127302L12.4702 6.12132C12.6308 6.20829 12.7645 6.33476 12.8576 6.48776C12.9507 6.64076 12.9999 6.81481 13 6.99208Z" fill="#2EA7E0"/>
</svg>
