<svg xmlns="http://www.w3.org/2000/svg" width="23" height="23" viewBox="0 0 23 23" fill="none">
<g clipPath="url(#clip0_4409_534)">
<path d="M20.6285 11.5479C20.6291 11.7965 20.5633 12.0408 20.4379 12.2554C20.3125 12.4701 20.132 12.6473 19.9151 12.7688L5.27179 21.1418C5.0614 21.2611 4.82382 21.3242 4.58196 21.3249C4.35892 21.3245 4.13924 21.2706 3.94133 21.1677C3.74342 21.0649 3.57305 20.9161 3.44451 20.7338C3.31596 20.5515 3.23298 20.3411 3.20252 20.1201C3.17207 19.8992 3.19502 19.6741 3.26946 19.4639L5.65464 12.4915C5.67814 12.4225 5.72265 12.3626 5.78194 12.3202C5.84122 12.2779 5.91228 12.2551 5.98516 12.2552H12.2564C12.352 12.2554 12.4467 12.2359 12.5345 12.198C12.6223 12.1601 12.7014 12.1045 12.7668 12.0348C12.8322 11.965 12.8826 11.8825 12.9148 11.7925C12.947 11.7024 12.9604 11.6067 12.9541 11.5113C12.9382 11.3319 12.8552 11.1651 12.7216 11.0443C12.5881 10.9235 12.4138 10.8576 12.2337 10.8598H5.99126C5.91849 10.8599 5.84751 10.8373 5.78824 10.7951C5.72897 10.7529 5.68439 10.6932 5.66074 10.6244L3.26772 3.64761C3.17453 3.38027 3.16487 3.09091 3.24001 2.81794C3.31516 2.54498 3.47157 2.30134 3.68846 2.11937C3.90535 1.9374 4.17246 1.82571 4.45433 1.79913C4.73619 1.77255 5.01947 1.83235 5.26655 1.97057L19.9177 10.3331C20.1332 10.4544 20.3126 10.6308 20.4375 10.8443C20.5624 11.0578 20.6283 11.3006 20.6285 11.5479Z" fill="white"/>
</g>
<defs>
<clipPath id="clip0_4409_534">
<rect width="22.3256" height="22.3256" fill="white" transform="translate(0.395508 0.394531)"/>
</clipPath>
</defs>
</svg>