<svg width="20" height="20" viewBox="0 0 20 20" fill="none" xmlns="http://www.w3.org/2000/svg">
<g clipPath="url(#clip0_361_80)">
<path d="M6.25 18.125C6.94036 18.125 7.5 17.5654 7.5 16.875C7.5 16.1846 6.94036 15.625 6.25 15.625C5.55964 15.625 5 16.1846 5 16.875C5 17.5654 5.55964 18.125 6.25 18.125Z" fill="#0088EA"/>
<path d="M14.375 18.125C15.0654 18.125 15.625 17.5654 15.625 16.875C15.625 16.1846 15.0654 15.625 14.375 15.625C13.6846 15.625 13.125 16.1846 13.125 16.875C13.125 17.5654 13.6846 18.125 14.375 18.125Z" fill="#0088EA"/>
<path d="M3.30391 5.625H17.5L15.2719 12.868C15.1932 13.1235 15.0346 13.3471 14.8195 13.5058C14.6043 13.6646 14.3439 13.7501 14.0766 13.75H6.56797C6.2963 13.7501 6.03199 13.6617 5.81505 13.4982C5.5981 13.3347 5.44033 13.1049 5.36563 12.8437L2.53984 2.95312C2.50251 2.82259 2.42368 2.70777 2.31529 2.62601C2.2069 2.54426 2.07483 2.50003 1.93906 2.5H0.625" stroke="#0088EA" stroke-width="1.5" stroke-linecap="round" stroke-linejoin="round"/>
</g>
<defs>
<clipPath id="clip0_361_80">
<rect width="20" height="20" fill="white"/>
</clipPath>
</defs>
</svg>
