<svg width="70" height="70" viewBox="0 0 70 70" fill="none" xmlns="http://www.w3.org/2000/svg">
<g clipPath="url(#clip0_1053_323)">
<path d="M35 70C54.33 70 70 54.33 70 35C70 15.67 54.33 0 35 0C15.67 0 0 15.67 0 35C0 54.33 15.67 70 35 70Z" fill="#2EA7E0"/>
<g clipPath="url(#clip1_1053_323)">
<path d="M50.125 21.25H43.25V19.875C43.25 18.781 42.8154 17.7318 42.0418 16.9582C41.2682 16.1846 40.219 15.75 39.125 15.75H30.875C29.781 15.75 28.7318 16.1846 27.9582 16.9582C27.1846 17.7318 26.75 18.781 26.75 19.875V21.25H19.875C19.5103 21.25 19.1606 21.3949 18.9027 21.6527C18.6449 21.9106 18.5 22.2603 18.5 22.625C18.5 22.9897 18.6449 23.3394 18.9027 23.5973C19.1606 23.8551 19.5103 24 19.875 24H21.25V48.75C21.25 49.4793 21.5397 50.1788 22.0555 50.6945C22.5712 51.2103 23.2707 51.5 24 51.5H46C46.7293 51.5 47.4288 51.2103 47.9445 50.6945C48.4603 50.1788 48.75 49.4793 48.75 48.75V24H50.125C50.4897 24 50.8394 23.8551 51.0973 23.5973C51.3551 23.3394 51.5 22.9897 51.5 22.625C51.5 22.2603 51.3551 21.9106 51.0973 21.6527C50.8394 21.3949 50.4897 21.25 50.125 21.25ZM32.25 41.875C32.25 42.2397 32.1051 42.5894 31.8473 42.8473C31.5894 43.1051 31.2397 43.25 30.875 43.25C30.5103 43.25 30.1606 43.1051 29.9027 42.8473C29.6449 42.5894 29.5 42.2397 29.5 41.875V30.875C29.5 30.5103 29.6449 30.1606 29.9027 29.9027C30.1606 29.6449 30.5103 29.5 30.875 29.5C31.2397 29.5 31.5894 29.6449 31.8473 29.9027C32.1051 30.1606 32.25 30.5103 32.25 30.875V41.875ZM40.5 41.875C40.5 42.2397 40.3551 42.5894 40.0973 42.8473C39.8394 43.1051 39.4897 43.25 39.125 43.25C38.7603 43.25 38.4106 43.1051 38.1527 42.8473C37.8949 42.5894 37.75 42.2397 37.75 41.875V30.875C37.75 30.5103 37.8949 30.1606 38.1527 29.9027C38.4106 29.6449 38.7603 29.5 39.125 29.5C39.4897 29.5 39.8394 29.6449 40.0973 29.9027C40.3551 30.1606 40.5 30.5103 40.5 30.875V41.875ZM40.5 21.25H29.5V19.875C29.5 19.5103 29.6449 19.1606 29.9027 18.9027C30.1606 18.6449 30.5103 18.5 30.875 18.5H39.125C39.4897 18.5 39.8394 18.6449 40.0973 18.9027C40.3551 19.1606 40.5 19.5103 40.5 19.875V21.25Z" fill="white"/>
</g>
</g>
<defs>
<clipPath id="clip0_1053_323">
<rect width="70" height="70" fill="white"/>
</clipPath>
<clipPath id="clip1_1053_323">
<rect width="44" height="44" fill="white" transform="translate(13 13)"/>
</clipPath>
</defs>
</svg>
