<svg width="16" height="16" viewBox="0 0 16 16" fill="none" xmlns="http://www.w3.org/2000/svg">
<g clipPath="url(#clip0_1416_1262)">
<path fill-rule="evenodd" clip-rule="evenodd" d="M6.73079 2C6.39417 2 6.07133 2.13372 5.83331 2.37175C5.59528 2.60978 5.46156 2.93261 5.46156 3.26923V3.69231H4.19233H3.34617C3.11251 3.69231 2.9231 3.88173 2.9231 4.11538C2.9231 4.34904 3.11251 4.53846 3.34617 4.53846H3.76925V12.1538C3.76925 12.3783 3.8584 12.5935 4.01708 12.7522C4.17577 12.9109 4.39099 13 4.6154 13H11.3846C11.609 13 11.8243 12.9109 11.983 12.7522C12.1416 12.5935 12.2308 12.3783 12.2308 12.1538V4.53846H12.6539C12.8875 4.53846 13.0769 4.34904 13.0769 4.11538C13.0769 3.88173 12.8875 3.69231 12.6539 3.69231H11.8077H10.5385V3.26923C10.5385 2.93261 10.4048 2.60978 10.1667 2.37175C9.9287 2.13372 9.60587 2 9.26925 2H6.73079ZM9.69233 3.69231V3.26923C9.69233 3.15702 9.64775 3.04941 9.56841 2.97007C9.48907 2.89073 9.38146 2.84615 9.26925 2.84615H6.73079C6.61858 2.84615 6.51097 2.89073 6.43163 2.97007C6.35229 3.04941 6.30771 3.15702 6.30771 3.26923V3.69231H9.69233ZM5.88463 4.53846L4.6154 4.53846V12.1538H11.3846V4.53846L10.1154 4.53846H5.88463ZM6.73079 6.23077C6.96445 6.23077 7.15386 6.42019 7.15386 6.65385V10.0385C7.15386 10.2721 6.96445 10.4615 6.73079 10.4615C6.49713 10.4615 6.30771 10.2721 6.30771 10.0385V6.65385C6.30771 6.42019 6.49713 6.23077 6.73079 6.23077ZM9.69233 6.65385C9.69233 6.42019 9.50291 6.23077 9.26925 6.23077C9.03559 6.23077 8.84617 6.42019 8.84617 6.65385V10.0385C8.84617 10.2721 9.03559 10.4615 9.26925 10.4615C9.50291 10.4615 9.69233 10.2721 9.69233 10.0385V6.65385Z" fill="#1C1D22"/>
</g>
<defs>
<clipPath id="clip0_1416_1262">
<rect width="16" height="16" fill="white"/>
</clipPath>
</defs>
</svg>
