<svg width="39" height="25" viewBox="0 0 39 25" fill="none" xmlns="http://www.w3.org/2000/svg">
<g id="Group 20">
<path id="Vector" d="M4.33214 2.73903C4.57671 1.65148 5.19321 0.906774 6.12041 0.469021C6.23566 0.414618 6.38066 0.429159 6.46644 0.300098C6.70307 0.285846 6.93957 0.259513 7.1762 0.259296C9.98316 0.256402 12.7903 0.257704 15.5972 0.256836C15.9758 0.256692 16.3418 0.309358 16.6752 0.530007C17.3207 0.957197 17.607 1.79038 17.4165 2.69859C16.6261 6.46539 15.835 10.232 15.0445 13.9988C14.496 16.6123 13.9284 19.2209 13.4073 21.8411C13.1218 23.2759 11.8328 24.4418 10.4888 24.4201C7.7299 24.3759 4.97005 24.4076 2.21066 24.4049C1.96674 24.4046 1.72283 24.3806 1.47891 24.3675C1.43133 24.2908 1.34998 24.2832 1.28139 24.2633C0.727103 24.1022 0.25306 23.2456 0.25293 22.7013C0.252735 22.1814 0.353478 21.6903 0.463789 21.1943C0.463463 21.1945 4.08503 3.83779 4.33214 2.73903Z" fill="#E4363A"/>
<path id="Vector_2" d="M13.8714 2.77855C14.1318 1.69594 14.7882 0.954607 15.7754 0.51884C15.8981 0.464684 16.0525 0.479159 16.1438 0.350683C16.3958 0.336496 16.6476 0.310282 16.8995 0.310066C19.8881 0.307185 22.8768 0.308482 25.8654 0.307617C26.2684 0.307473 26.6581 0.359901 27.0131 0.579549C27.7004 1.0048 28.0052 1.83421 27.8023 2.73829C26.9608 6.48801 26.1185 10.2376 25.2769 13.9873C24.6929 16.5889 24.0885 19.1857 23.5337 21.794C23.2298 23.2223 21.8574 24.3828 20.4264 24.3613C17.489 24.3172 14.5506 24.3489 11.6127 24.3461C11.353 24.3459 11.0933 24.3219 10.8336 24.309C10.783 24.2325 10.6964 24.225 10.6233 24.2052C10.0332 24.0448 9.52846 23.1921 9.52832 22.6503C9.52811 22.1328 9.63537 21.6439 9.75282 21.1501C9.75248 21.1503 13.6084 3.87233 13.8714 2.77855Z" fill="#004A87"/>
<path id="Vector_3" d="M24.1488 2.77855C24.4092 1.69594 25.0656 0.954607 26.0528 0.51884C26.1755 0.464684 26.3299 0.479159 26.4212 0.350683C26.6731 0.336496 26.9249 0.310282 27.1769 0.310066C30.1654 0.307185 33.1541 0.308482 36.1427 0.307617C36.5458 0.307473 36.9355 0.359901 37.2904 0.579549C37.9777 1.0048 38.2825 1.83421 38.0796 2.73829C37.2381 6.48801 36.3959 10.2376 35.5542 13.9873C34.9702 16.5889 34.3659 19.1857 33.8111 21.794C33.5072 23.2223 32.1347 24.3828 30.7037 24.3613C27.7664 24.3172 24.828 24.3489 21.8901 24.3461C21.6304 24.3459 21.3707 24.3219 21.111 24.309C21.0603 24.2325 20.9737 24.225 20.9007 24.2052C20.3105 24.0448 19.8058 23.1921 19.8057 22.6503C19.8055 22.1328 19.9127 21.6439 20.0302 21.1501C20.0298 21.1503 23.8857 3.87233 24.1488 2.77855Z" fill="#008286"/>
<g id="Group">
<path id="Vector_4" d="M25.3499 11.422C25.1105 11.4221 24.871 11.4261 24.6318 11.4201C24.5325 11.4177 24.4904 11.4479 24.4704 11.5558C24.3559 12.1709 24.2304 12.7837 24.1147 13.3985C24.0933 13.512 24.0548 13.5547 23.9363 13.5501C23.6538 13.5389 23.3702 13.5382 23.0877 13.55C22.9479 13.5558 22.9137 13.522 22.9435 13.3759C23.1235 12.4925 23.2953 11.6072 23.4707 10.7228C23.6626 9.75547 23.858 8.7888 24.0444 7.82041C24.0675 7.7005 24.1075 7.66817 24.2225 7.66896C25.0222 7.67465 25.8221 7.67299 26.622 7.67155C26.8136 7.67119 27.0017 7.69575 27.187 7.74314C27.7133 7.87773 28.0259 8.23407 28.0744 8.79759C28.1574 9.76354 27.7218 10.8299 26.6849 11.265C26.4146 11.3784 26.1307 11.4232 25.8397 11.4223C25.6764 11.4215 25.5132 11.4219 25.3499 11.422ZM25.4038 10.3969C25.5507 10.3969 25.6978 10.3979 25.8447 10.3968C26.4381 10.392 26.7699 10.0918 26.8628 9.47684C26.9345 9.00161 26.7886 8.76741 26.339 8.70426C25.9341 8.64736 25.5236 8.68496 25.1156 8.6797C25.0525 8.67891 25.0371 8.71528 25.026 8.77339C24.9292 9.27721 24.8319 9.78111 24.7269 10.2831C24.7063 10.3811 24.7303 10.3999 24.816 10.3981C25.0118 10.3941 25.2078 10.3968 25.4038 10.3969Z" fill="white"/>
<path id="Vector_5" d="M33.3372 12.3059C33.4054 12.2548 33.4112 12.1957 33.4317 12.1461C33.7217 11.4465 34.0132 10.7477 34.2973 10.0455C34.3378 9.9454 34.385 9.91105 34.4878 9.91451C34.7325 9.92258 34.9778 9.92351 35.2224 9.91458C35.3559 9.90976 35.3641 9.94483 35.3086 10.0611C34.6929 11.35 34.0794 12.6402 33.469 13.9318C33.2053 14.4898 32.9488 15.0519 32.5732 15.5417C32.2478 15.966 31.8717 16.3165 31.3314 16.4092C31.1562 16.4392 30.9807 16.4822 30.8018 16.4332C30.8208 16.2601 30.8391 16.0869 30.8597 15.9141C30.865 15.8696 30.8763 15.8318 30.9277 15.8107C31.4001 15.617 31.6855 15.2204 31.9376 14.7908C32.1047 14.5061 32.2354 14.2014 32.3774 13.903C32.4084 13.8378 32.4025 13.7739 32.3971 13.7055C32.3026 12.4995 32.2118 11.2933 32.1138 10.0876C32.1032 9.95678 32.1364 9.92128 32.2585 9.92344C32.5414 9.92841 32.8248 9.92783 33.1073 9.91386C33.2476 9.90695 33.292 9.94447 33.2935 10.0974C33.3007 10.8266 33.321 11.5557 33.3372 12.3059Z" fill="white"/>
<path id="Vector_6" d="M29.6809 13.5209C29.6251 13.5211 29.5692 13.5192 29.5387 13.461C29.4623 13.3153 29.3637 13.3431 29.2396 13.3964C29.0032 13.4982 28.7553 13.566 28.4972 13.5739C27.9727 13.59 27.615 13.2927 27.5519 12.7528C27.4574 11.9442 27.6745 11.2136 28.1658 10.5882C28.5934 10.044 29.3461 9.97728 29.9129 10.4043C30.0173 10.4829 30.0927 10.5101 30.1898 10.4092C30.229 10.3684 30.3277 10.2617 30.3782 10.2072C30.3979 10.1858 30.4245 10.1734 30.4531 10.1725C30.6254 10.1664 31.2429 10.1445 31.2752 10.1436C31.4121 10.1397 31.4015 10.1961 31.3532 10.4226C31.1405 11.4196 30.9272 12.4165 30.72 13.4147C30.6984 13.519 30.664 13.556 30.5614 13.5494C30.4153 13.5401 29.8276 13.5202 29.6809 13.5209ZM29.9175 11.5842C29.911 11.438 29.8988 11.2926 29.8341 11.1576C29.7193 10.918 29.5107 10.8415 29.2765 10.9545C29.1969 10.9929 29.1252 11.0444 29.0649 11.1097C28.7331 11.4677 28.592 11.8978 28.629 12.3907C28.6366 12.4913 28.6681 12.5889 28.7172 12.6789C28.8296 12.8848 29.0182 12.9551 29.23 12.8671C29.3379 12.8223 29.427 12.7495 29.505 12.6612C29.7734 12.3567 29.8984 11.9929 29.9175 11.5842Z" fill="white"/>
<path id="Vector_7" d="M17.4326 9.82935C18.1546 9.81798 18.6579 10.1922 18.8051 10.8492C19.0693 12.0284 18.2821 13.3405 17.1515 13.5938C16.7722 13.6788 16.3917 13.6695 16.0316 13.5006C15.6346 13.3143 15.3986 12.9852 15.3402 12.54C15.2403 11.7785 15.5255 10.6359 16.433 10.0959C16.7428 9.91152 17.0786 9.83411 17.4326 9.82935ZM16.2386 12.0446C16.2374 12.513 16.3912 12.768 16.6897 12.8231C17.0552 12.8907 17.3764 12.7918 17.5932 12.4629C17.8505 12.0724 17.9546 11.632 17.9088 11.1606C17.8788 10.8523 17.6655 10.65 17.3669 10.6284C17.0106 10.6024 16.7297 10.7455 16.5371 11.0579C16.3391 11.3794 16.2593 11.74 16.2386 12.0446Z" fill="white"/>
<path id="Vector_8" d="M21.8631 9.83991C21.3532 9.79418 20.9364 9.97588 20.5762 10.3757C20.5953 10.2655 20.6052 10.1525 20.6359 10.046C20.6694 9.92957 20.6269 9.91279 20.5283 9.91582C20.3271 9.92201 20.1253 9.92396 19.9242 9.9151C19.8202 9.91049 19.7867 9.94786 19.7671 10.0519C19.6913 10.4531 19.248 12.7445 19.1124 13.4246C19.0918 13.5278 19.1151 13.5513 19.2104 13.5488L19.8471 13.5499C19.9604 13.5556 19.9947 13.5085 20.0123 13.4029C20.0568 13.1359 20.3638 11.5741 20.4233 11.3232C20.5322 10.8641 20.8832 10.6095 21.3089 10.6263C21.5914 10.6375 21.7385 10.8027 21.7207 11.0969C21.715 11.1924 21.6977 11.2876 21.6797 11.3816C21.5497 12.063 21.4204 12.7445 21.2848 13.4246C21.2642 13.5278 21.2875 13.5513 21.3828 13.5488L22.0195 13.5499C22.1327 13.5556 22.167 13.5085 22.1846 13.4029C22.2292 13.1359 22.2863 12.8713 22.334 12.6049C22.4395 12.0165 22.5845 11.4355 22.6568 10.8412C22.7255 10.2765 22.4066 9.88852 21.8631 9.83991Z" fill="white"/>
<path id="Vector_9" d="M11.2139 10.6432C10.7977 10.7045 10.569 10.9824 10.4816 11.381C10.3511 11.9751 10.2454 12.5751 10.1331 13.1734C10.063 13.5466 10.0664 13.5473 9.69789 13.5473C9.56728 13.5473 9.43618 13.5394 9.30626 13.5496C9.19151 13.5586 9.17045 13.5176 9.19214 13.4076C9.33813 12.6666 9.47969 11.9246 9.62285 11.183C9.69442 10.8122 9.76981 10.442 9.83619 10.0703C9.85573 9.96089 9.88255 9.90321 10.0091 9.91199C10.2149 9.92632 10.4224 9.91934 10.6291 9.91415C10.7126 9.91206 10.7337 9.94238 10.7164 10.0224C10.6914 10.1375 10.6709 10.2536 10.6628 10.3847C10.7203 10.3166 10.7811 10.2543 10.8452 10.1975C11.1443 9.93316 11.5364 9.80411 11.9279 9.8371C11.9795 9.84142 12.031 9.84898 12.0826 9.86064C12.55 9.96622 12.8089 10.3545 12.7269 10.8746C12.6346 11.4587 12.5139 12.0382 12.4047 12.6195C12.3559 12.8797 12.3006 13.1387 12.2564 13.3997C12.239 13.5033 12.2096 13.5555 12.0939 13.5492C11.8878 13.5381 11.6807 13.5417 11.4742 13.5479C11.3708 13.551 11.3384 13.5374 11.3635 13.4119C11.509 12.6829 11.6472 11.9521 11.7792 11.2203C11.8588 10.7781 11.6495 10.5707 11.2139 10.6432Z" fill="white"/>
<path id="Vector_10" d="M13.2652 13.5456C13.2003 13.5457 13.1518 13.4832 13.1654 13.4173C13.3044 12.7418 13.4407 12.078 13.5778 11.4144C13.6702 10.9672 13.7677 10.521 13.8542 10.0725C13.8759 9.95987 13.9075 9.90917 14.0296 9.91558L14.7155 9.91709C14.818 9.91428 14.8429 9.9338 14.8185 10.049C14.5808 11.1743 14.3499 12.3012 14.1176 13.4276C14.105 13.4889 14.1027 13.5486 14.0144 13.5473C13.7673 13.5437 13.5199 13.5451 13.2652 13.5456Z" fill="white"/>
<path id="Vector_11" d="M15.0511 8.5968C14.9337 8.59997 14.8161 8.59911 14.6986 8.59846L14.6987 8.59796C14.6673 8.59796 14.6372 8.59803 14.6076 8.59817C14.5979 8.59817 14.5884 8.5981 14.5788 8.5981V8.59832C14.4729 8.59882 14.3772 8.59954 14.2817 8.5968C14.2189 8.59508 14.1796 8.61063 14.1661 8.68178C14.1219 8.91382 14.0758 9.14542 14.0268 9.37638C14.011 9.45055 14.0287 9.47849 14.1047 9.4764C14.2221 9.47324 14.3396 9.4741 14.4572 9.47475L14.4571 9.47525C14.4885 9.47525 14.5186 9.47511 14.5482 9.47504C14.5578 9.47504 14.5674 9.47511 14.577 9.47511V9.47489C14.6829 9.47439 14.7786 9.47367 14.8741 9.4764C14.9369 9.47813 14.9761 9.46258 14.9896 9.39143C15.0339 9.15939 15.08 8.92779 15.129 8.69683C15.1448 8.62266 15.1273 8.59472 15.0511 8.5968Z" fill="white"/>
<path id="Vector_12" d="M5.97967 13.672C5.54681 13.6617 5.13114 13.6246 4.75053 13.4109C4.30326 13.1597 4.06573 12.7676 4.02111 12.2437C3.98092 11.7721 4.11264 11.3246 4.20064 10.8721C4.41038 9.79305 4.63176 8.71663 4.84165 7.63777C4.86922 7.49618 4.92022 7.44757 5.06213 7.45362C5.36091 7.46644 5.66073 7.4637 5.95979 7.45456C6.08375 7.45074 6.10426 7.49265 6.08091 7.60838C5.85689 8.71887 5.63571 9.83 5.41475 10.9412C5.3686 11.1734 5.31719 11.405 5.28407 11.6393C5.20972 12.166 5.4814 12.5199 5.98813 12.5711C6.82225 12.6555 7.3844 12.2202 7.55153 11.3711C7.79973 10.1102 8.0543 8.85065 8.30298 7.58973C8.32107 7.4982 8.34698 7.4534 8.44745 7.45535C8.77929 7.46161 9.11133 7.45873 9.44323 7.45701C9.51494 7.45665 9.5525 7.46377 9.53296 7.55992C9.25614 8.92418 9.0033 10.2941 8.70286 11.6526C8.45099 12.7917 7.70431 13.4099 6.61721 13.6131C6.54779 13.626 6.47787 13.639 6.40768 13.6448C6.26141 13.6565 6.11465 13.6636 5.97967 13.672Z" fill="white"/>
</g>
</g>
</svg>
