<svg width="37" height="25" viewBox="0 0 37 25" fill="none" xmlns="http://www.w3.org/2000/svg">
<g id="Group">
<path id="Vector" d="M36.4566 23.0067C36.4566 23.8014 35.8515 24.4448 35.1042 24.4448H1.35212C0.605323 24.4448 0 23.8014 0 23.0067V1.43801C0 0.643902 0.605323 0 1.35212 0H35.1042C35.8515 0 36.4566 0.643902 36.4566 1.43801L36.4566 23.0067Z" fill="#21246E"/>
<path id="Vector_2" d="M13.8549 7.07776L9.79851 17.3704H7.15092L5.15619 9.15718C5.03336 8.65063 4.92839 8.46636 4.56019 8.2513C3.95707 7.90449 2.9649 7.57917 2.08887 7.3766L2.15014 7.07784H6.40974C6.95301 7.07784 7.44141 7.46317 7.56424 8.12743L8.61897 14.0846L11.2241 7.07784L13.8549 7.07776ZM24.2255 14.0084C24.2372 11.2934 20.6925 11.1456 20.718 9.93094C20.7249 9.56022 21.0554 9.16785 21.7792 9.0688C22.1385 9.01795 23.1276 8.98071 24.2485 9.52791L24.6879 7.34633C24.0848 7.11356 23.3095 6.89062 22.346 6.89062C19.8712 6.89062 18.129 8.29035 18.1143 10.2931C18.0981 11.7742 19.3573 12.6006 20.3071 13.0938C21.2824 13.5986 21.6085 13.9208 21.6051 14.3734C21.5987 15.0642 20.8269 15.3662 20.1071 15.3797C18.8479 15.4006 18.1175 15.0178 17.5343 14.729L17.081 16.9856C17.6651 17.2708 18.7468 17.5185 19.8663 17.5331C22.4965 17.5331 24.2172 16.1482 24.2255 14.0084ZM30.7608 17.3704H33.0772L31.056 7.07769H28.9176C28.4371 7.07769 28.032 7.37569 27.8515 7.83215L24.0965 17.3703H26.7247L27.2464 15.8331H30.4591L30.7608 17.3704ZM27.9667 13.7237L29.2853 9.85898L30.0438 13.7237H27.9667ZM17.4332 7.07776L15.3615 17.3704H12.8571L14.9293 7.07769H17.4332V7.07776Z" fill="white"/>
</g>
</svg>
